<?xml version="1.0" encoding="UTF-8"?> <svg xmlns="http://www.w3.org/2000/svg" xmlns:xlink="http://www.w3.org/1999/xlink" id="Layer_1" version="1.1" viewBox="0 0 2443 1284"><defs><style> .st0 { fill: #1b2838; } .st1 { isolation: isolate; } .st2 { fill: #fff; } .st3 { fill: none; stroke-linejoin: round; } .st3, .st4, .st5 { stroke: #8b8b98; stroke-width: 4.6px; } .st4 { fill: #f0f6ff; } .st4, .st6, .st7, .st5, .st8 { fill-rule: evenodd; } .st4, .st7, .st5 { stroke-miterlimit: 8; } .st6 { fill: #66b3cb; } .st7 { stroke: #0080a9; stroke-width: 9.2px; } .st7, .st5, .st8 { fill: #0080a9; } </style></defs><path class="st5" d="M322.5,1099.3c0-18.7,15.1-33.8,33.8-33.8h467.5c18.7,0,33.8,15.1,33.8,33.8v148.5c0,18.7-15.1,33.8-33.8,33.8h-467.5c-18.6,0-33.8-15.1-33.8-33.8v-148.5Z"></path><g class="st1"><path class="st2" d="M465.5,1156.4h6.4l11.7,33.6h-4.3l-10.6-30.6h-.2l-10.5,30.6h-4.3l11.8-33.6ZM460.2,1178h16.9v3.2h-16.9v-3.2Z"></path><path class="st2" d="M488.2,1164.1h2.6l1.5,8.1v26.4h-4.2v-34.6ZM502.3,1190.4c-2.4,0-4.5-.5-6.3-1.5-1.8-1-3.2-2.4-4.2-4.3-1-1.8-1.5-4-1.5-6.5v-2.4c0-2.5.5-4.6,1.5-6.4,1-1.8,2.4-3.2,4.2-4.2,1.8-1,3.9-1.5,6.3-1.5s6,1,7.8,2.9c1.8,1.9,2.8,4.6,2.8,8.2v4.6c0,3.5-.9,6.2-2.8,8.2-1.9,1.9-4.5,2.9-7.9,2.9ZM501.8,1187.2c2.2,0,4-.7,5.2-2.2,1.2-1.4,1.9-3.5,1.9-6v-3.8c0-2.6-.6-4.7-1.9-6.1-1.2-1.4-3-2.2-5.2-2.2s-5.2.8-6.9,2.5c-1.7,1.7-2.5,4-2.5,6.9v1.4c0,2.9.8,5.3,2.5,7,1.7,1.7,4,2.5,6.9,2.5Z"></path><path class="st2" d="M520.2,1164.1h2.6l1.5,8.1v26.4h-4.2v-34.6ZM534.4,1190.4c-2.4,0-4.5-.5-6.3-1.5-1.8-1-3.2-2.4-4.2-4.3-1-1.8-1.5-4-1.5-6.5v-2.4c0-2.5.5-4.6,1.5-6.4,1-1.8,2.4-3.2,4.2-4.2,1.8-1,3.9-1.5,6.3-1.5s6,1,7.8,2.9c1.8,1.9,2.8,4.6,2.8,8.2v4.6c0,3.5-.9,6.2-2.8,8.2-1.9,1.9-4.5,2.9-7.9,2.9ZM533.8,1187.2c2.2,0,4-.7,5.2-2.2,1.2-1.4,1.9-3.5,1.9-6v-3.8c0-2.6-.6-4.7-1.9-6.1-1.2-1.4-3-2.2-5.2-2.2s-5.2.8-6.9,2.5c-1.7,1.7-2.5,4-2.5,6.9v1.4c0,2.9.8,5.3,2.5,7,1.7,1.7,4,2.5,6.9,2.5Z"></path><path class="st2" d="M556.5,1154.5v35.5h-4.2v-35.5h4.2Z"></path><path class="st2" d="M569.2,1154.9v5.8h-4.6v-5.8h4.6ZM569,1164.1v25.9h-4.2v-25.9h4.2Z"></path><path class="st2" d="M588.2,1190.4c-2.5,0-4.6-.4-6.4-1.3-1.8-.9-3.2-2.2-4.2-3.8-1-1.7-1.4-3.6-1.4-5.9v-4.6c0-2.3.5-4.2,1.5-5.9,1-1.6,2.4-2.9,4.2-3.8,1.8-.9,3.9-1.3,6.4-1.3,3.5,0,6.4.8,8.5,2.5,2.2,1.6,3.4,3.9,3.7,6.7l-4.1.3c-.4-2-1.2-3.6-2.6-4.7-1.3-1.1-3.1-1.6-5.4-1.6s-4.4.7-5.8,2.1c-1.4,1.4-2.1,3.3-2.1,5.7v4.6c0,2.4.7,4.3,2.1,5.7,1.4,1.4,3.4,2,5.9,2s4.1-.5,5.4-1.6c1.3-1.1,2.2-2.6,2.6-4.6l4.1.3c-.3,2.8-1.5,5.1-3.7,6.7-2.2,1.7-5,2.5-8.5,2.5Z"></path><path class="st2" d="M614.2,1190.4c-2.8,0-4.9-.6-6.5-1.9-1.6-1.3-2.4-3.1-2.4-5.4v-1.3c0-2.3.8-4.1,2.4-5.4s3.8-1.9,6.7-1.9,5.5.6,7.3,1.8c1.8,1.2,2.7,3,2.7,5.3v1.4c0,2.3-.9,4.2-2.7,5.5-1.8,1.3-4.3,2-7.5,2ZM622.6,1181.4v-8.5c0-2-.6-3.5-1.7-4.5-1.1-.9-2.9-1.4-5.4-1.4s-3.1.2-4.6.6c-1.5.4-3,1-4.3,1.8l-.6-3.2c.9-.5,1.9-1,3.1-1.4,1.2-.4,2.4-.7,3.7-1,1.3-.2,2.5-.4,3.7-.4,3.5,0,6,.8,7.8,2.3s2.6,3.8,2.6,6.9v17.1h-2.9l-1.3-8.6ZM615.4,1187.6c2.2,0,4-.5,5.3-1.4,1.3-.9,1.9-2.2,1.9-3.7v-.7c0-1.5-.6-2.6-1.8-3.5-1.2-.8-2.9-1.2-5.1-1.2s-3.6.4-4.7,1.1c-1.1.8-1.6,2-1.6,3.8v.6c0,1.6.5,2.9,1.6,3.7,1.1.8,2.5,1.3,4.5,1.3Z"></path><path class="st2" d="M631.3,1164.1h15.5v3.2h-15.5v-3.2ZM642.9,1190.4c-2.4,0-4.1-.6-5.2-1.8-1.1-1.2-1.6-3-1.6-5.5v-18.7l1.2-6.6h3v24.8c0,1.6.3,2.8.8,3.4.6.6,1.6.9,3,.9s1,0,1.5,0c.5,0,1-.2,1.5-.3l.6,3.1c-.5.1-1,.3-1.5.4-.5.1-1.1.2-1.6.3-.6,0-1.1.1-1.6.1Z"></path><path class="st2" d="M657,1154.9v5.8h-4.6v-5.8h4.6ZM656.8,1164.1v25.9h-4.2v-25.9h4.2Z"></path><path class="st2" d="M676.5,1190.4c-2.6,0-4.8-.4-6.7-1.3-1.9-.9-3.3-2.2-4.3-3.8-1-1.7-1.5-3.6-1.5-5.9v-4.6c0-2.3.5-4.2,1.5-5.9,1-1.6,2.4-2.9,4.3-3.8,1.9-.9,4.1-1.3,6.6-1.3s4.8.4,6.7,1.3c1.9.9,3.3,2.2,4.3,3.8,1,1.7,1.5,3.6,1.5,5.9v4.6c0,2.3-.5,4.2-1.5,5.9-1,1.7-2.4,2.9-4.3,3.8-1.9.9-4.1,1.3-6.7,1.3ZM676.5,1186.9c2.6,0,4.6-.7,6.1-2,1.5-1.4,2.2-3.2,2.2-5.6v-4.5c0-2.4-.7-4.2-2.2-5.6-1.5-1.4-3.5-2-6.1-2s-4.5.7-6,2.1c-1.5,1.4-2.3,3.2-2.3,5.6v4.5c0,2.3.8,4.2,2.3,5.6,1.5,1.4,3.5,2.1,6,2.1Z"></path><path class="st2" d="M696.2,1164.1h2.9l1.3,8.5v17.4h-4.2v-25.9ZM715.4,1174.7c0-2.7-.5-4.6-1.6-5.8-1.1-1.2-2.8-1.8-5.1-1.8s-4.8.9-6.2,2.7-2.2,4.5-2.2,7.9l-1.8,3.3v-3.2c0-4.5,1-8,3-10.5,2-2.4,4.9-3.6,8.7-3.6s5.5.9,7.1,2.6c1.5,1.7,2.3,4.4,2.3,8.1v15.6h-4.2v-15.3Z"></path></g><path class="st4" d="M773.9,735.5v253h26.6l-89,89-89-89h26.6v-253h124.9Z"></path><path class="st4" d="M406.1,1065.5v-185h-26.6l89-89,89,89h-26.6v185h-124.9Z"></path><path class="st4" d="M838.5,258h1022v-26.5l89,89-89,89v-26.6h-1022v-124.9Z"></path><path class="st4" d="M1949.5,198h-1022v26.5l-89-89,89-89v26.5h1022v124.9Z"></path><path class="st7" d="M974.5,136.5c0-23.7,19.2-43,43-43s43,19.3,43,43-19.2,43-43,43-43-19.3-43-43Z"></path><g class="st1"><path class="st2" d="M1017.1,149.4c-3.3,0-5.9-.7-7.7-2-1.8-1.3-3-3.2-3.4-5.7l5.6-.6c.3,1.4.9,2.4,1.8,3.2s2.1,1.1,3.7,1.1,2.5-.2,3.3-.5c.8-.3,1.4-.7,1.7-1.3.3-.6.5-1.2.5-2v-.7c0-1.3-.5-2.3-1.4-2.9-1-.7-2.4-1-4.3-1h-10.2l4.1-3.7h6.1c1.7,0,3.2.1,4.6.4,1.3.3,2.4.6,3.3,1.1.9.5,1.6,1,2.1,1.6.5.6.9,1.3,1.2,2.1.2.8.4,1.6.4,2.4v.8c0,2.4-1,4.3-2.9,5.6-1.9,1.3-4.8,1.9-8.5,1.9ZM1007.7,123.1h19.5l-.3,4.2h-15.6l1.8-3.2-.9,11.8-5.5,1.3,1-14Z"></path></g><g class="st1"><path class="st0" d="M1103.4,123.1h9.2c2.6,0,4.5.6,5.8,1.9,1.3,1.2,2,3.1,2,5.6v1.5c0,2.4-.7,4.2-2,5.5s-3.3,1.8-5.8,1.8h-6.2v-2.5h5.1c2,0,3.4-.4,4.4-1.2.9-.8,1.4-2.1,1.4-3.8v-1.2c0-1.8-.5-3.2-1.4-4-.9-.8-2.4-1.2-4.4-1.2h-5.7l.7-1v24.5h-3.2v-25.9ZM1113.1,138.6h3.3l4.6,10.4h-3.3l-4.5-10.4Z"></path><path class="st0" d="M1133.9,149.3c-1.9,0-3.6-.3-4.9-1-1.3-.7-2.4-1.6-3.1-2.9-.7-1.3-1.1-2.8-1.1-4.6v-3.6c0-1.8.4-3.3,1.1-4.5.8-1.3,1.8-2.2,3.2-2.9,1.4-.7,3.1-1,5-1,3,0,5.2.8,6.8,2.3,1.6,1.6,2.4,3.8,2.4,6.7v2.3h-16v-2.1h13.4l-.5.9v-1.7c0-1.8-.5-3.2-1.6-4.2-1.1-1-2.6-1.5-4.4-1.5s-3.5.5-4.6,1.6-1.6,2.5-1.6,4.4v3.9c0,1.8.5,3.3,1.6,4.3,1,1,2.5,1.5,4.4,1.5s3.1-.3,4.1-1c1-.7,1.7-1.7,1.9-2.9l3.1.2c-.4,2-1.5,3.5-3.1,4.6-1.6,1.1-3.7,1.6-6.2,1.6Z"></path><path class="st0" d="M1156.1,149.3c-2.6,0-4.7-.5-6-1.5-1.4-1-2.2-2.5-2.5-4.6h3.3c.1,1.2.7,2.2,1.5,2.8.9.6,2.1.9,3.7.9s2.8-.3,3.6-.8c.9-.5,1.3-1.3,1.3-2.3s-.2-1.4-.7-1.9c-.5-.4-1.1-.8-1.9-1-.8-.2-1.6-.4-2.6-.6-.9-.2-1.8-.4-2.8-.6-.9-.2-1.8-.5-2.6-.9-.8-.4-1.4-1-1.9-1.7s-.7-1.7-.7-2.9c0-1.8.7-3.2,2.1-4.2,1.4-.9,3.4-1.4,6.1-1.4s3.1.2,4.2.6c1.1.4,2.1,1.1,2.7,1.9.7.9,1.1,1.9,1.3,3.2h-3.3c0-1-.6-1.9-1.4-2.5-.8-.6-2-.9-3.4-.9s-2.8.3-3.6.8c-.9.6-1.3,1.3-1.3,2.3s.2,1.4.7,1.9c.5.4,1.1.8,1.9,1s1.6.4,2.6.6c.9.2,1.9.4,2.8.6.9.2,1.8.5,2.6.9.8.4,1.4,1,1.9,1.7.5.7.7,1.7.7,2.9,0,1.8-.7,3.1-2.1,4.1-1.4.9-3.4,1.4-6.2,1.4Z"></path><path class="st0" d="M1178.1,149.3c-2,0-3.7-.3-5.2-1-1.4-.7-2.5-1.7-3.3-2.9-.8-1.3-1.1-2.8-1.1-4.6v-3.6c0-1.8.4-3.3,1.2-4.5.8-1.3,1.9-2.2,3.3-2.9,1.4-.7,3.2-1,5.1-1s3.7.3,5.1,1c1.4.7,2.5,1.7,3.3,2.9.8,1.3,1.2,2.8,1.2,4.6v3.6c0,1.8-.4,3.3-1.2,4.6-.8,1.3-1.9,2.3-3.3,2.9-1.4.7-3.1,1-5.1,1ZM1178.1,146.6c2,0,3.5-.5,4.7-1.6,1.1-1,1.7-2.5,1.7-4.3v-3.5c0-1.8-.6-3.3-1.7-4.3-1.1-1-2.7-1.6-4.7-1.6s-3.5.5-4.7,1.6c-1.2,1.1-1.7,2.5-1.7,4.3v3.5c0,1.8.6,3.2,1.7,4.3,1.2,1.1,2.7,1.6,4.7,1.6Z"></path><path class="st0" d="M1196.2,140.9c0,2,.4,3.5,1.2,4.5.8,1,2,1.4,3.7,1.4s3.8-.7,5-2.1c1.2-1.4,1.7-3.4,1.7-6.1l1.4-2.6v2.4c0,3.5-.7,6.2-2.2,8-1.5,1.9-3.6,2.8-6.5,2.8s-4.5-.7-5.7-2-1.8-3.4-1.8-6.2v-12.1h3.2v11.8ZM1211.1,149h-2.3l-1-6.6v-13.4h3.3v20Z"></path><path class="st0" d="M1217.3,129h2.2l1,7.4v12.6h-3.2v-20ZM1219.5,138c0-3.1.6-5.4,1.8-7,1.2-1.6,2.9-2.4,5.2-2.4s.8,0,1.2,0c.4,0,.8.1,1.2.2l-.2,2.8c-.7-.2-1.5-.3-2.4-.3-1.9,0-3.4.6-4.3,1.8-1,1.2-1.5,3.1-1.5,5.6l-1-.9Z"></path><path class="st0" d="M1240,149.3c-1.9,0-3.5-.3-4.9-1-1.4-.7-2.5-1.7-3.2-2.9-.7-1.3-1.1-2.8-1.1-4.6v-3.6c0-1.8.4-3.3,1.1-4.5.8-1.3,1.8-2.2,3.2-2.9,1.4-.7,3-1,4.9-1,2.7,0,4.9.6,6.6,1.9,1.7,1.3,2.6,3,2.8,5.2l-3.1.3c-.3-1.6-1-2.8-2-3.6-1-.8-2.4-1.2-4.2-1.2s-3.4.5-4.5,1.6c-1.1,1.1-1.6,2.5-1.6,4.4v3.6c0,1.9.5,3.3,1.6,4.4,1.1,1,2.6,1.6,4.5,1.6s3.1-.4,4.2-1.2c1-.8,1.7-2,2-3.6l3.1.3c-.2,2.2-1.2,3.9-2.8,5.2-1.7,1.3-3.9,1.9-6.6,1.9Z"></path><path class="st0" d="M1262.6,149.3c-1.9,0-3.6-.3-4.9-1-1.3-.7-2.4-1.6-3.1-2.9-.7-1.3-1.1-2.8-1.1-4.6v-3.6c0-1.8.4-3.3,1.1-4.5.8-1.3,1.8-2.2,3.2-2.9,1.4-.7,3.1-1,5-1,3,0,5.2.8,6.8,2.3,1.6,1.6,2.4,3.8,2.4,6.7v2.3h-16v-2.1h13.4l-.5.9v-1.7c0-1.8-.5-3.2-1.6-4.2-1.1-1-2.6-1.5-4.4-1.5s-3.5.5-4.6,1.6-1.6,2.5-1.6,4.4v3.9c0,1.8.5,3.3,1.6,4.3,1,1,2.5,1.5,4.4,1.5s3.1-.3,4.1-1c1-.7,1.7-1.7,1.9-2.9l3.1.2c-.4,2-1.5,3.5-3.1,4.6-1.6,1.1-3.7,1.6-6.2,1.6Z"></path><path class="st0" d="M1285.4,147.1l10.8-9.8c1.1-1,2-1.9,2.6-2.6.7-.7,1.2-1.3,1.5-1.8s.6-1,.7-1.4c.1-.5.2-1,.2-1.5v-.5c0-1.3-.5-2.3-1.6-3-1.1-.7-2.6-1.1-4.6-1.1s-3.2.5-4.3,1.4-1.9,2.2-2.2,3.9l-3.1-.3c.4-2.4,1.5-4.2,3.1-5.5,1.7-1.3,3.8-1.9,6.4-1.9s5.3.6,7,1.7c1.7,1.1,2.5,2.7,2.5,4.8v.5c0,1-.1,1.9-.4,2.7s-.8,1.7-1.6,2.6-1.8,2-3.3,3.3l-10.7,10-1-2h17v2.6h-19.1v-1.9Z"></path><path class="st0" d="M1324.2,149.3c-2.1,0-3.8-.5-5-1.5s-1.8-2.4-1.8-4.1v-1c0-1.8.6-3.2,1.8-4.2s3-1.5,5.2-1.5,4.2.5,5.6,1.4c1.4,1,2.1,2.3,2.1,4.1v1.1c0,1.8-.7,3.2-2.1,4.2s-3.3,1.5-5.8,1.5ZM1330.7,142.4v-6.5c0-1.6-.4-2.7-1.3-3.4-.9-.7-2.2-1.1-4.1-1.1s-2.4.2-3.6.5-2.3.8-3.3,1.4l-.5-2.4c.7-.4,1.5-.7,2.4-1.1.9-.3,1.8-.6,2.8-.7,1-.2,1.9-.3,2.8-.3,2.7,0,4.7.6,6,1.8s2,3,2,5.3v13.2h-2.2l-1-6.6ZM1325.1,147.2c1.7,0,3.1-.4,4.1-1.1s1.5-1.7,1.5-2.9v-.6c0-1.1-.5-2-1.4-2.7-.9-.6-2.3-1-4-1s-2.8.3-3.6.9c-.8.6-1.3,1.6-1.3,2.9v.5c0,1.3.4,2.2,1.2,2.9.8.7,2,1,3.4,1Z"></path><path class="st0" d="M1348.4,149.3c-1.9,0-3.5-.3-4.9-1-1.4-.7-2.5-1.7-3.2-2.9-.7-1.3-1.1-2.8-1.1-4.6v-3.6c0-1.8.4-3.3,1.1-4.5.8-1.3,1.8-2.2,3.2-2.9,1.4-.7,3-1,4.9-1,2.7,0,4.9.6,6.6,1.9,1.7,1.3,2.6,3,2.8,5.2l-3.1.3c-.3-1.6-1-2.8-2-3.6-1-.8-2.4-1.2-4.2-1.2s-3.4.5-4.5,1.6-1.6,2.5-1.6,4.4v3.6c0,1.9.5,3.3,1.6,4.4,1.1,1,2.6,1.6,4.5,1.6s3.1-.4,4.2-1.2,1.7-2,2-3.6l3.1.3c-.2,2.2-1.2,3.9-2.8,5.2-1.7,1.3-3.9,1.9-6.6,1.9Z"></path><path class="st0" d="M1362.5,121.6h3.2v27.4h-3.2v-27.4ZM1363.1,142.6l11.2-13.6h3.8l-13.5,16.3-1.5-2.7ZM1368.3,138.6l2.3-1.7,7.7,12.1h-3.4l-6.6-10.4Z"></path><path class="st0" d="M1381.8,129h2.2l1,6.6v13.4h-3.2v-20ZM1396.6,137.2c0-2-.4-3.5-1.3-4.5-.8-.9-2.1-1.4-3.9-1.4s-3.7.7-4.8,2.1c-1.1,1.4-1.7,3.4-1.7,6.1l-1.4,2.6v-2.4c0-3.5.8-6.2,2.3-8.1,1.6-1.9,3.8-2.8,6.7-2.8s4.3.7,5.4,2c1.2,1.3,1.8,3.4,1.8,6.2v12h-3.2v-11.8Z"></path><path class="st0" d="M1414.6,149.3c-2,0-3.7-.3-5.2-1-1.4-.7-2.5-1.7-3.3-2.9-.8-1.3-1.1-2.8-1.1-4.6v-3.6c0-1.8.4-3.3,1.2-4.5.8-1.3,1.9-2.2,3.3-2.9,1.4-.7,3.2-1,5.1-1s3.7.3,5.1,1c1.4.7,2.5,1.7,3.3,2.9.8,1.3,1.2,2.8,1.2,4.6v3.6c0,1.8-.4,3.3-1.2,4.6-.8,1.3-1.9,2.3-3.3,2.9-1.4.7-3.1,1-5.1,1ZM1414.6,146.6c2,0,3.5-.5,4.7-1.6,1.1-1,1.7-2.5,1.7-4.3v-3.5c0-1.8-.6-3.3-1.7-4.3-1.1-1-2.7-1.6-4.7-1.6s-3.5.5-4.7,1.6c-1.2,1.1-1.7,2.5-1.7,4.3v3.5c0,1.8.6,3.2,1.7,4.3,1.2,1.1,2.7,1.6,4.7,1.6Z"></path><path class="st0" d="M1427.4,129h3.1l4.9,17.9h.1l5.1-17.9h4.3l5.2,17.9h.1l4.9-17.9h3.2l-5.3,20h-5.4l-4.8-16.4h-.1l-4.8,16.4h-5.4l-5.2-20Z"></path><path class="st0" d="M1465.8,121.6v27.4h-3.2v-27.4h3.2Z"></path><path class="st0" d="M1480.4,149.3c-1.9,0-3.6-.3-4.9-1-1.3-.7-2.4-1.6-3.1-2.9-.7-1.3-1.1-2.8-1.1-4.6v-3.6c0-1.8.4-3.3,1.1-4.5.8-1.3,1.8-2.2,3.2-2.9,1.4-.7,3.1-1,5-1,3,0,5.2.8,6.8,2.3,1.6,1.6,2.4,3.8,2.4,6.7v2.3h-16v-2.1h13.4l-.5.9v-1.7c0-1.8-.5-3.2-1.6-4.2-1.1-1-2.6-1.5-4.4-1.5s-3.5.5-4.6,1.6c-1.1,1-1.6,2.5-1.6,4.4v3.9c0,1.8.5,3.3,1.6,4.3,1,1,2.5,1.5,4.4,1.5s3.1-.3,4.1-1,1.7-1.7,1.9-2.9l3.1.2c-.4,2-1.5,3.5-3.1,4.6-1.6,1.1-3.7,1.6-6.2,1.6Z"></path><path class="st0" d="M1502.9,149.3c-2.6,0-4.6-.7-6.1-2.2-1.4-1.5-2.1-3.6-2.1-6.3v-3.6c0-2.7.7-4.8,2.1-6.3,1.4-1.5,3.5-2.2,6.1-2.2s3.5.4,4.8,1.1c1.4.8,2.5,1.8,3.2,3.2.8,1.4,1.1,3,1.1,4.9v1.9c0,1.9-.4,3.6-1.1,5-.8,1.4-1.8,2.5-3.2,3.3-1.4.8-3,1.2-4.9,1.2ZM1503.4,146.9c2.3,0,4-.7,5.3-2,1.3-1.3,1.9-3.1,1.9-5.4v-1.1c0-2.2-.6-4-1.9-5.3-1.3-1.3-3.1-1.9-5.3-1.9s-3.1.6-4,1.7c-1,1.1-1.4,2.7-1.4,4.7v3c0,2,.5,3.6,1.5,4.7,1,1.1,2.3,1.7,4,1.7ZM1510.7,142.7v-21.1h3.2v27.4h-2l-1.3-6.3Z"></path><path class="st0" d="M1524.6,155.9c-1.9,0-3.4-.4-4.5-1.2-1-.8-1.5-1.9-1.5-3.4s.5-2.7,1.5-3.4,2.5-1.2,4.5-1.2h6.2c1.9,0,3.4.4,4.5,1.2,1,.8,1.6,1.9,1.6,3.5s-.5,2.7-1.6,3.4c-1,.8-2.5,1.2-4.5,1.2h-6.2ZM1527.8,143.1c-2.6,0-4.6-.6-6.1-1.7-1.5-1.1-2.2-2.7-2.2-4.8v-1.3c0-2.1.7-3.7,2.2-4.8,1.5-1.1,3.5-1.7,6.1-1.7s4.6.6,6.1,1.7c1.4,1.1,2.2,2.8,2.2,4.8v1.3c0,2-.7,3.6-2.2,4.8-1.4,1.1-3.5,1.7-6.1,1.7ZM1523.6,147.5c-1,0-1.8-.2-2.4-.7-.6-.5-.9-1.1-.9-1.9s.3-1.5.9-2c.6-.5,1.4-.7,2.4-.7h4.1v.9h-2.5c-.7,0-1.2.2-1.6.5s-.5.7-.5,1.3c0,.6.2,1,.5,1.3.3.3.9.5,1.6.5h2.5v.9h-4.2ZM1530.5,153.7c2.2,0,3.3-.8,3.3-2.5s-1.1-2.5-3.3-2.5h-5.3c-2.2,0-3.4.8-3.4,2.5s1.1,2.5,3.4,2.5h5.3ZM1527.8,140.7c1.6,0,2.9-.4,3.8-1.1.9-.7,1.3-1.8,1.3-3.1v-1.1c0-1.4-.4-2.4-1.3-3.2-.9-.8-2.1-1.1-3.8-1.1s-2.8.4-3.7,1.1c-.9.8-1.3,1.8-1.3,3.2v1.1c0,1.3.4,2.4,1.3,3.1.9.8,2.1,1.1,3.7,1.1ZM1532,129.9l5.2-1.7h.9v2.8l-6,.4v-1.6Z"></path><path class="st0" d="M1550.1,149.3c-1.9,0-3.6-.3-4.9-1-1.3-.7-2.4-1.6-3.1-2.9-.7-1.3-1.1-2.8-1.1-4.6v-3.6c0-1.8.4-3.3,1.1-4.5.8-1.3,1.8-2.2,3.2-2.9,1.4-.7,3.1-1,5-1,3,0,5.2.8,6.8,2.3,1.6,1.6,2.4,3.8,2.4,6.7v2.3h-16v-2.1h13.4l-.5.9v-1.7c0-1.8-.5-3.2-1.6-4.2-1.1-1-2.6-1.5-4.4-1.5s-3.5.5-4.6,1.6c-1.1,1-1.6,2.5-1.6,4.4v3.9c0,1.8.5,3.3,1.6,4.3,1,1,2.5,1.5,4.4,1.5s3.1-.3,4.1-1,1.7-1.7,1.9-2.9l3.1.2c-.4,2-1.5,3.5-3.1,4.6-1.6,1.1-3.7,1.6-6.2,1.6Z"></path><path class="st0" d="M1572.2,149.3c-2.6,0-4.7-.5-6-1.5s-2.2-2.5-2.5-4.6h3.3c.1,1.2.7,2.2,1.5,2.8.9.6,2.1.9,3.7.9s2.8-.3,3.6-.8c.9-.5,1.3-1.3,1.3-2.3s-.2-1.4-.7-1.9c-.5-.4-1.1-.8-1.9-1-.8-.2-1.6-.4-2.6-.6-.9-.2-1.8-.4-2.8-.6-.9-.2-1.8-.5-2.6-.9-.8-.4-1.4-1-1.9-1.7-.5-.7-.7-1.7-.7-2.9,0-1.8.7-3.2,2.1-4.2,1.4-.9,3.4-1.4,6.1-1.4s3.1.2,4.2.6c1.1.4,2.1,1.1,2.7,1.9.7.9,1.1,1.9,1.3,3.2h-3.3c0-1-.6-1.9-1.4-2.5-.8-.6-2-.9-3.4-.9s-2.8.3-3.6.8c-.9.6-1.3,1.3-1.3,2.3s.2,1.4.7,1.9c.5.4,1.1.8,1.9,1s1.6.4,2.6.6c.9.2,1.9.4,2.8.6.9.2,1.8.5,2.6.9.8.4,1.4,1,1.9,1.7.5.7.7,1.7.7,2.9,0,1.8-.7,3.1-2.1,4.1-1.4.9-3.4,1.4-6.2,1.4Z"></path><path class="st0" d="M1603.2,149.3c-1.9,0-3.5-.3-4.9-1-1.4-.7-2.5-1.7-3.2-2.9-.7-1.3-1.1-2.8-1.1-4.6v-3.6c0-1.8.4-3.3,1.1-4.5.8-1.3,1.8-2.2,3.2-2.9,1.4-.7,3-1,4.9-1,2.7,0,4.9.6,6.6,1.9,1.7,1.3,2.6,3,2.8,5.2l-3.1.3c-.3-1.6-1-2.8-2-3.6-1-.8-2.4-1.2-4.2-1.2s-3.4.5-4.5,1.6-1.6,2.5-1.6,4.4v3.6c0,1.9.5,3.3,1.6,4.4,1.1,1,2.6,1.6,4.5,1.6s3.1-.4,4.2-1.2,1.7-2,2-3.6l3.1.3c-.2,2.2-1.2,3.9-2.8,5.2-1.7,1.3-3.9,1.9-6.6,1.9Z"></path><path class="st0" d="M1626.3,149.3c-2,0-3.7-.3-5.2-1-1.4-.7-2.5-1.7-3.3-2.9-.8-1.3-1.1-2.8-1.1-4.6v-3.6c0-1.8.4-3.3,1.2-4.5.8-1.3,1.9-2.2,3.3-2.9,1.4-.7,3.2-1,5.1-1s3.7.3,5.1,1c1.4.7,2.5,1.7,3.3,2.9.8,1.3,1.2,2.8,1.2,4.6v3.6c0,1.8-.4,3.3-1.2,4.6-.8,1.3-1.9,2.3-3.3,2.9-1.4.7-3.1,1-5.1,1ZM1626.3,146.6c2,0,3.5-.5,4.7-1.6,1.1-1,1.7-2.5,1.7-4.3v-3.5c0-1.8-.6-3.3-1.7-4.3-1.1-1-2.7-1.6-4.7-1.6s-3.5.5-4.7,1.6c-1.2,1.1-1.7,2.5-1.7,4.3v3.5c0,1.8.6,3.2,1.7,4.3,1.2,1.1,2.7,1.6,4.7,1.6Z"></path><path class="st0" d="M1641.5,129h2.2l1,6.9v13.1h-3.2v-20ZM1656.1,137.2c0-2-.4-3.5-1.3-4.5-.8-.9-2.1-1.4-3.8-1.4s-3.6.7-4.7,2.1c-1.1,1.4-1.6,3.4-1.6,6.1l-1.4,2.6v-2.4c0-3.5.8-6.2,2.3-8.1,1.5-1.9,3.7-2.8,6.6-2.8s4.2.7,5.4,2c1.2,1.3,1.7,3.4,1.7,6.2v12.1h-3.2v-11.8ZM1670.7,137.2c0-2-.4-3.5-1.2-4.5-.8-.9-2.1-1.4-3.8-1.4s-3.6.7-4.7,2.1c-1.1,1.4-1.6,3.4-1.6,6.1l-1.5,2.6v-2.4c0-3.5.8-6.2,2.3-8.1,1.6-1.9,3.8-2.8,6.7-2.8s4.2.7,5.4,2c1.2,1.3,1.7,3.4,1.7,6.2v12.1h-3.3v-11.8Z"></path><path class="st0" d="M1679.9,129h2.2l1,6.9v13.1h-3.2v-20ZM1694.5,137.2c0-2-.4-3.5-1.3-4.5-.8-.9-2.1-1.4-3.8-1.4s-3.6.7-4.7,2.1c-1.1,1.4-1.6,3.4-1.6,6.1l-1.4,2.6v-2.4c0-3.5.8-6.2,2.3-8.1,1.5-1.9,3.7-2.8,6.6-2.8s4.2.7,5.4,2c1.2,1.3,1.7,3.4,1.7,6.2v12.1h-3.2v-11.8ZM1709.1,137.2c0-2-.4-3.5-1.2-4.5-.8-.9-2.1-1.4-3.8-1.4s-3.6.7-4.7,2.1c-1.1,1.4-1.6,3.4-1.6,6.1l-1.5,2.6v-2.4c0-3.5.8-6.2,2.3-8.1,1.6-1.9,3.8-2.8,6.7-2.8s4.2.7,5.4,2c1.2,1.3,1.7,3.4,1.7,6.2v12.1h-3.3v-11.8Z"></path><path class="st0" d="M1721.5,121.9v4.5h-3.6v-4.5h3.6ZM1721.4,129v20h-3.2v-20h3.2Z"></path><path class="st0" d="M1725.2,129h12v2.4h-12v-2.4ZM1734.1,149.3c-1.9,0-3.2-.5-4-1.4-.8-.9-1.3-2.3-1.3-4.3v-14.4l.9-5.1h2.3v19.1c0,1.3.2,2.1.6,2.6.4.5,1.2.7,2.3.7s.7,0,1.1,0c.4,0,.8-.1,1.1-.3l.5,2.4c-.4,0-.8.2-1.2.3-.4,0-.8.2-1.3.2s-.8,0-1.2,0Z"></path></g><path class="st4" d="M1949.5,568.9h-1022v26.6l-89-89,89-89v26.6h1022v124.9Z"></path><path class="st4" d="M838.5,629.1h1022v-26.6l89,89-89,89v-26.6h-1022v-124.9Z"></path><path class="st7" d="M974.5,318.5c0-23.8,19.2-43,43-43s43,19.2,43,43-19.2,43-43,43-43-19.2-43-43Z"></path><g class="st1"><path class="st2" d="M1006.1,321.8l5.9-16.7h5.6l-6.3,18.1-3.8-2h21.3v3.9h-22.7v-3.3ZM1020.4,316.5l1.4-4h4.5v18.5h-5.8v-14.5Z"></path></g><g class="st1"><path class="st0" d="M1109.7,307.1h4.9l9,25.9h-3.3l-8.1-23.6h-.1l-8.1,23.6h-3.3l9.1-25.9ZM1105.6,323.8h13v2.4h-13v-2.4Z"></path><path class="st0" d="M1134.2,333.3c-2.6,0-4.7-.5-6-1.5-1.4-1-2.2-2.5-2.5-4.6h3.3c.1,1.2.7,2.2,1.5,2.8.9.6,2.1.9,3.7.9s2.8-.3,3.6-.8c.9-.5,1.3-1.3,1.3-2.3s-.2-1.4-.7-1.9c-.5-.4-1.1-.8-1.9-1-.8-.2-1.6-.4-2.6-.6-.9-.2-1.8-.4-2.8-.6-.9-.2-1.8-.5-2.6-.9-.8-.4-1.4-1-1.9-1.7s-.7-1.7-.7-2.9c0-1.8.7-3.2,2.1-4.2,1.4-.9,3.4-1.4,6.1-1.4s3.1.2,4.2.6c1.1.4,2.1,1.1,2.7,1.9.7.9,1.1,1.9,1.3,3.2h-3.3c0-1-.6-1.9-1.4-2.5-.8-.6-2-.9-3.4-.9s-2.8.3-3.6.8c-.9.6-1.3,1.3-1.3,2.3s.2,1.4.7,1.9c.5.4,1.1.8,1.9,1s1.6.4,2.6.6c.9.2,1.9.4,2.8.6.9.2,1.8.5,2.6.9.8.4,1.4,1,1.9,1.7.5.7.7,1.7.7,2.9,0,1.8-.7,3.1-2.1,4.1-1.4.9-3.4,1.4-6.2,1.4Z"></path><path class="st0" d="M1147.3,305.6h3.2v27.4h-3.2v-27.4ZM1148,326.6l11.2-13.6h3.8l-13.5,16.3-1.5-2.7ZM1153.1,322.6l2.3-1.7,7.7,12.1h-3.4l-6.6-10.4Z"></path><path class="st0" d="M1175.9,307.1h9.2c2.6,0,4.5.6,5.8,1.9,1.3,1.2,2,3.1,2,5.6v1.5c0,2.4-.7,4.2-2,5.5-1.3,1.2-3.3,1.8-5.8,1.8h-6.2v-2.5h5.1c2,0,3.4-.4,4.4-1.2.9-.8,1.4-2.1,1.4-3.8v-1.2c0-1.8-.5-3.2-1.4-4-.9-.8-2.4-1.2-4.4-1.2h-5.7l.7-1v24.5h-3.2v-25.9ZM1185.5,322.6h3.3l4.6,10.4h-3.3l-4.5-10.4Z"></path><path class="st0" d="M1206.3,333.3c-1.9,0-3.6-.3-4.9-1-1.3-.7-2.4-1.6-3.1-2.9s-1.1-2.8-1.1-4.6v-3.6c0-1.8.4-3.3,1.1-4.5.8-1.3,1.8-2.2,3.2-2.9,1.4-.7,3.1-1,5-1,3,0,5.2.8,6.8,2.3,1.6,1.6,2.4,3.8,2.4,6.7v2.3h-16v-2.1h13.4l-.5.9v-1.7c0-1.8-.5-3.2-1.6-4.2-1.1-1-2.6-1.5-4.4-1.5s-3.5.5-4.6,1.6c-1.1,1-1.6,2.5-1.6,4.4v3.9c0,1.8.5,3.3,1.6,4.3,1,1,2.5,1.5,4.4,1.5s3.1-.3,4.1-1c1-.7,1.7-1.7,1.9-2.9l3.1.2c-.4,2-1.5,3.5-3.1,4.6s-3.7,1.6-6.2,1.6Z"></path><path class="st0" d="M1228.5,333.3c-2.6,0-4.7-.5-6-1.5s-2.2-2.5-2.5-4.6h3.3c.1,1.2.7,2.2,1.5,2.8s2.1.9,3.7.9,2.8-.3,3.6-.8c.9-.5,1.3-1.3,1.3-2.3s-.2-1.4-.7-1.9c-.5-.4-1.1-.8-1.9-1-.8-.2-1.6-.4-2.6-.6-.9-.2-1.9-.4-2.8-.6-.9-.2-1.8-.5-2.6-.9-.8-.4-1.4-1-1.9-1.7-.5-.7-.7-1.7-.7-2.9,0-1.8.7-3.2,2.1-4.2,1.4-.9,3.4-1.4,6.1-1.4s3.1.2,4.2.6c1.1.4,2.1,1.1,2.7,1.9.7.9,1.1,1.9,1.3,3.2h-3.3c0-1-.6-1.9-1.4-2.5-.8-.6-2-.9-3.4-.9s-2.8.3-3.6.8c-.9.6-1.3,1.3-1.3,2.3s.2,1.4.7,1.9c.5.4,1.1.8,1.9,1,.8.2,1.6.4,2.6.6.9.2,1.9.4,2.8.6.9.2,1.8.5,2.6.9.8.4,1.4,1,1.9,1.7.5.7.7,1.7.7,2.9,0,1.8-.7,3.1-2.1,4.1-1.4.9-3.4,1.4-6.2,1.4Z"></path><path class="st0" d="M1250.6,333.3c-2,0-3.7-.3-5.2-1-1.4-.7-2.5-1.7-3.3-2.9-.8-1.3-1.1-2.8-1.1-4.6v-3.6c0-1.8.4-3.3,1.2-4.5.8-1.3,1.9-2.2,3.3-2.9,1.4-.7,3.2-1,5.1-1s3.7.3,5.1,1c1.4.7,2.5,1.7,3.3,2.9.8,1.3,1.2,2.8,1.2,4.6v3.6c0,1.8-.4,3.3-1.2,4.6-.8,1.3-1.9,2.3-3.3,2.9-1.4.7-3.1,1-5.1,1ZM1250.6,330.6c2,0,3.5-.5,4.7-1.6,1.1-1,1.7-2.5,1.7-4.3v-3.5c0-1.8-.6-3.3-1.7-4.3-1.1-1-2.7-1.6-4.7-1.6s-3.5.5-4.7,1.6c-1.2,1.1-1.7,2.5-1.7,4.3v3.5c0,1.8.6,3.2,1.7,4.3s2.7,1.6,4.7,1.6Z"></path><path class="st0" d="M1268.6,324.9c0,2,.4,3.5,1.2,4.5.8,1,2,1.4,3.7,1.4s3.8-.7,5-2.1c1.2-1.4,1.7-3.4,1.7-6.1l1.4-2.6v2.4c0,3.5-.7,6.2-2.2,8-1.5,1.9-3.6,2.8-6.5,2.8s-4.5-.7-5.7-2c-1.2-1.3-1.8-3.4-1.8-6.2v-12.1h3.2v11.8ZM1283.5,333h-2.3l-1-6.6v-13.4h3.3v20Z"></path><path class="st0" d="M1289.7,313h2.2l1,7.4v12.6h-3.2v-20ZM1292,322c0-3.1.6-5.4,1.8-7,1.2-1.6,2.9-2.4,5.2-2.4s.8,0,1.2,0c.4,0,.8.1,1.2.2l-.2,2.8c-.7-.2-1.5-.3-2.4-.3-1.9,0-3.4.6-4.3,1.8-1,1.2-1.5,3.1-1.5,5.6l-1-.9Z"></path><path class="st0" d="M1312.5,333.3c-1.9,0-3.5-.3-4.9-1-1.4-.7-2.5-1.7-3.2-2.9-.7-1.3-1.1-2.8-1.1-4.6v-3.6c0-1.8.4-3.3,1.1-4.5.8-1.3,1.8-2.2,3.2-2.9,1.4-.7,3-1,4.9-1,2.7,0,4.9.6,6.6,1.9,1.7,1.3,2.6,3,2.8,5.2l-3.1.3c-.3-1.6-1-2.8-2-3.6-1-.8-2.4-1.2-4.2-1.2s-3.4.5-4.5,1.6c-1.1,1.1-1.6,2.5-1.6,4.4v3.6c0,1.9.5,3.3,1.6,4.4,1.1,1,2.6,1.6,4.5,1.6s3.1-.4,4.2-1.2c1-.8,1.7-2,2-3.6l3.1.3c-.2,2.2-1.2,3.9-2.8,5.2-1.7,1.3-3.9,1.9-6.6,1.9Z"></path><path class="st0" d="M1335,333.3c-1.9,0-3.6-.3-4.9-1-1.3-.7-2.4-1.6-3.1-2.9-.7-1.3-1.1-2.8-1.1-4.6v-3.6c0-1.8.4-3.3,1.1-4.5.8-1.3,1.8-2.2,3.2-2.9,1.4-.7,3.1-1,5-1,3,0,5.2.8,6.8,2.3,1.6,1.6,2.4,3.8,2.4,6.7v2.3h-16v-2.1h13.4l-.5.9v-1.7c0-1.8-.5-3.2-1.6-4.2-1.1-1-2.6-1.5-4.4-1.5s-3.5.5-4.6,1.6-1.6,2.5-1.6,4.4v3.9c0,1.8.5,3.3,1.6,4.3,1,1,2.5,1.5,4.4,1.5s3.1-.3,4.1-1c1-.7,1.7-1.7,1.9-2.9l3.1.2c-.4,2-1.5,3.5-3.1,4.6-1.6,1.1-3.7,1.6-6.2,1.6Z"></path><path class="st0" d="M1357.8,331.1l10.8-9.8c1.1-1,2-1.9,2.6-2.6.7-.7,1.2-1.3,1.5-1.8.4-.5.6-1,.7-1.4.1-.5.2-1,.2-1.5v-.5c0-1.3-.5-2.3-1.6-3-1.1-.7-2.6-1.1-4.6-1.1s-3.2.5-4.3,1.4c-1.1.9-1.9,2.2-2.2,3.9l-3.1-.3c.4-2.4,1.5-4.2,3.1-5.5,1.7-1.3,3.8-1.9,6.4-1.9s5.3.6,7,1.7c1.7,1.1,2.5,2.7,2.5,4.8v.5c0,1-.1,1.9-.4,2.7-.3.8-.8,1.7-1.6,2.6s-1.8,2-3.3,3.3l-10.7,10-1-2h17v2.6h-19.1v-1.9Z"></path><path class="st0" d="M1388.3,313h12v2.4h-12v-2.4ZM1397.3,333.3c-1.8,0-3.2-.5-4-1.4-.8-.9-1.3-2.3-1.3-4.3v-14.4l.9-5.1h2.3v19.1c0,1.3.2,2.1.6,2.6.4.5,1.2.7,2.3.7s.7,0,1.1,0c.4,0,.8-.1,1.1-.3l.5,2.4c-.4,0-.8.2-1.2.3-.4,0-.8.2-1.3.2s-.8,0-1.2,0Z"></path><path class="st0" d="M1412.9,333.3c-2,0-3.7-.3-5.2-1-1.4-.7-2.5-1.7-3.3-2.9-.8-1.3-1.1-2.8-1.1-4.6v-3.6c0-1.8.4-3.3,1.2-4.5.8-1.3,1.9-2.2,3.3-2.9,1.4-.7,3.2-1,5.1-1s3.7.3,5.1,1c1.4.7,2.5,1.7,3.3,2.9.8,1.3,1.2,2.8,1.2,4.6v3.6c0,1.8-.4,3.3-1.2,4.6-.8,1.3-1.9,2.3-3.3,2.9-1.4.7-3.1,1-5.1,1ZM1412.9,330.6c2,0,3.5-.5,4.7-1.6,1.1-1,1.7-2.5,1.7-4.3v-3.5c0-1.8-.6-3.3-1.7-4.3-1.1-1-2.7-1.6-4.7-1.6s-3.5.5-4.7,1.6c-1.2,1.1-1.7,2.5-1.7,4.3v3.5c0,1.8.6,3.2,1.7,4.3,1.2,1.1,2.7,1.6,4.7,1.6Z"></path><path class="st0" d="M1446,333.3c-1.9,0-3.5-.3-4.9-1-1.4-.7-2.5-1.7-3.2-2.9-.7-1.3-1.1-2.8-1.1-4.6v-3.6c0-1.8.4-3.3,1.1-4.5.8-1.3,1.8-2.2,3.2-2.9,1.4-.7,3-1,4.9-1,2.7,0,4.9.6,6.6,1.9,1.7,1.3,2.6,3,2.8,5.2l-3.1.3c-.3-1.6-1-2.8-2-3.6-1-.8-2.4-1.2-4.2-1.2s-3.4.5-4.5,1.6-1.6,2.5-1.6,4.4v3.6c0,1.9.5,3.3,1.6,4.4,1.1,1,2.6,1.6,4.5,1.6s3.1-.4,4.2-1.2,1.7-2,2-3.6l3.1.3c-.2,2.2-1.2,3.9-2.8,5.2-1.7,1.3-3.9,1.9-6.6,1.9Z"></path><path class="st0" d="M1469.1,333.3c-2,0-3.7-.3-5.2-1-1.4-.7-2.5-1.7-3.3-2.9-.8-1.3-1.1-2.8-1.1-4.6v-3.6c0-1.8.4-3.3,1.2-4.5.8-1.3,1.9-2.2,3.3-2.9,1.4-.7,3.2-1,5.1-1s3.7.3,5.1,1c1.4.7,2.5,1.7,3.3,2.9.8,1.3,1.2,2.8,1.2,4.6v3.6c0,1.8-.4,3.3-1.2,4.6-.8,1.3-1.9,2.3-3.3,2.9-1.4.7-3.1,1-5.1,1ZM1469.1,330.6c2,0,3.5-.5,4.7-1.6,1.1-1,1.7-2.5,1.7-4.3v-3.5c0-1.8-.6-3.3-1.7-4.3-1.1-1-2.7-1.6-4.7-1.6s-3.5.5-4.7,1.6c-1.2,1.1-1.7,2.5-1.7,4.3v3.5c0,1.8.6,3.2,1.7,4.3,1.2,1.1,2.7,1.6,4.7,1.6Z"></path><path class="st0" d="M1484.3,313h2.2l1,6.9v13.1h-3.2v-20ZM1498.9,321.2c0-2-.4-3.5-1.3-4.5-.8-.9-2.1-1.4-3.8-1.4s-3.6.7-4.7,2.1c-1.1,1.4-1.6,3.4-1.6,6.1l-1.4,2.6v-2.4c0-3.5.8-6.2,2.3-8.1,1.5-1.9,3.7-2.8,6.6-2.8s4.2.7,5.4,2c1.2,1.3,1.7,3.4,1.7,6.2v12.1h-3.2v-11.8ZM1513.5,321.2c0-2-.4-3.5-1.2-4.5-.8-.9-2.1-1.4-3.8-1.4s-3.6.7-4.7,2.1c-1.1,1.4-1.6,3.4-1.6,6.1l-1.5,2.6v-2.4c0-3.5.8-6.2,2.3-8.1,1.6-1.9,3.8-2.8,6.7-2.8s4.2.7,5.4,2c1.2,1.3,1.7,3.4,1.7,6.2v12.1h-3.3v-11.8Z"></path><path class="st0" d="M1522.7,313h2.2l1,6.9v13.1h-3.2v-20ZM1537.3,321.2c0-2-.4-3.5-1.3-4.5-.8-.9-2.1-1.4-3.8-1.4s-3.6.7-4.7,2.1c-1.1,1.4-1.6,3.4-1.6,6.1l-1.4,2.6v-2.4c0-3.5.8-6.2,2.3-8.1,1.5-1.9,3.7-2.8,6.6-2.8s4.2.7,5.4,2c1.2,1.3,1.7,3.4,1.7,6.2v12.1h-3.2v-11.8ZM1551.8,321.2c0-2-.4-3.5-1.2-4.5-.8-.9-2.1-1.4-3.8-1.4s-3.6.7-4.7,2.1c-1.1,1.4-1.6,3.4-1.6,6.1l-1.5,2.6v-2.4c0-3.5.8-6.2,2.3-8.1,1.6-1.9,3.8-2.8,6.7-2.8s4.2.7,5.4,2c1.2,1.3,1.7,3.4,1.7,6.2v12.1h-3.3v-11.8Z"></path><path class="st0" d="M1564.3,305.9v4.5h-3.6v-4.5h3.6ZM1564.2,313v20h-3.2v-20h3.2Z"></path><path class="st0" d="M1568,313h12v2.4h-12v-2.4ZM1576.9,333.3c-1.9,0-3.2-.5-4-1.4-.8-.9-1.3-2.3-1.3-4.3v-14.4l.9-5.1h2.3v19.1c0,1.3.2,2.1.6,2.6.4.5,1.2.7,2.3.7s.7,0,1.1,0c.4,0,.8-.1,1.1-.3l.5,2.4c-.4,0-.8.2-1.2.3-.4,0-.8.2-1.3.2s-.8,0-1.2,0Z"></path></g><path class="st7" d="M974.5,506.5c0-23.8,19.2-43,43-43s43,19.2,43,43-19.2,43-43,43-43-19.2-43-43Z"></path><g class="st1"><path class="st2" d="M1017,519.4c-3.4,0-5.9-.7-7.8-2s-2.9-3.3-3.4-5.7l5.7-.6c.3,1.4.9,2.5,1.7,3.2.8.7,2.1,1.1,3.8,1.1s3.3-.3,4.2-.9,1.3-1.5,1.3-2.7v-.6c0-1.2-.5-2.2-1.4-2.8-.9-.6-2.3-.9-4.1-.9h-4.4v-3.4h4.4c1.8,0,3.1-.3,3.9-.9.9-.6,1.3-1.5,1.3-2.7v-.5c0-1.1-.4-1.9-1.3-2.5-.9-.6-2.1-.8-3.8-.8s-2.7.4-3.6,1.1c-.9.8-1.5,1.8-1.8,3.2l-5.5-.6c.4-2.5,1.6-4.4,3.4-5.7,1.8-1.3,4.3-2,7.4-2s6.2.6,8,1.7c1.9,1.1,2.8,2.8,2.8,4.9v.5c0,1.6-.6,2.9-1.7,4-1.1,1.1-2.7,1.8-4.8,2.3v-1.4c2.3.5,4,1.3,5.2,2.5,1.2,1.2,1.8,2.6,1.8,4.4v.6c0,2.3-1,4.1-2.9,5.3-1.9,1.2-4.7,1.9-8.4,1.9Z"></path></g><g class="st1"><path class="st0" d="M1103.4,493.1h9.2c2.6,0,4.5.6,5.8,1.9,1.3,1.2,2,3.1,2,5.6v1.5c0,2.4-.7,4.2-2,5.5s-3.3,1.8-5.8,1.8h-6.2v-2.5h5.1c2,0,3.4-.4,4.4-1.2.9-.8,1.4-2.1,1.4-3.8v-1.2c0-1.8-.5-3.2-1.4-4-.9-.8-2.4-1.2-4.4-1.2h-5.7l.7-1v24.5h-3.2v-25.9ZM1113.1,508.6h3.3l4.6,10.4h-3.3l-4.5-10.4Z"></path><path class="st0" d="M1133.9,519.3c-1.9,0-3.6-.3-4.9-1-1.3-.7-2.4-1.6-3.1-2.9-.7-1.3-1.1-2.8-1.1-4.6v-3.6c0-1.8.4-3.3,1.1-4.5.8-1.3,1.8-2.2,3.2-2.9,1.4-.7,3.1-1,5-1,3,0,5.2.8,6.8,2.3,1.6,1.6,2.4,3.8,2.4,6.7v2.3h-16v-2.1h13.4l-.5.9v-1.7c0-1.8-.5-3.2-1.6-4.2-1.1-1-2.6-1.5-4.4-1.5s-3.5.5-4.6,1.6-1.6,2.5-1.6,4.4v3.9c0,1.8.5,3.3,1.6,4.3,1,1,2.5,1.5,4.4,1.5s3.1-.3,4.1-1c1-.7,1.7-1.7,1.9-2.9l3.1.2c-.4,2-1.5,3.5-3.1,4.6-1.6,1.1-3.7,1.6-6.2,1.6Z"></path><path class="st0" d="M1156.1,519.3c-2.6,0-4.7-.5-6-1.5-1.4-1-2.2-2.5-2.5-4.6h3.3c.1,1.2.7,2.2,1.5,2.8.9.6,2.1.9,3.7.9s2.8-.3,3.6-.8c.9-.5,1.3-1.3,1.3-2.3s-.2-1.4-.7-1.9c-.5-.4-1.1-.8-1.9-1-.8-.2-1.6-.4-2.6-.6-.9-.2-1.8-.4-2.8-.6-.9-.2-1.8-.5-2.6-.9-.8-.4-1.4-1-1.9-1.7s-.7-1.7-.7-2.9c0-1.8.7-3.2,2.1-4.2,1.4-.9,3.4-1.4,6.1-1.4s3.1.2,4.2.6c1.1.4,2.1,1.1,2.7,1.9.7.9,1.1,1.9,1.3,3.2h-3.3c0-1-.6-1.9-1.4-2.5-.8-.6-2-.9-3.4-.9s-2.8.3-3.6.8c-.9.6-1.3,1.3-1.3,2.3s.2,1.4.7,1.9c.5.4,1.1.8,1.9,1s1.6.4,2.6.6c.9.2,1.9.4,2.8.6.9.2,1.8.5,2.6.9.8.4,1.4,1,1.9,1.7.5.7.7,1.7.7,2.9,0,1.8-.7,3.1-2.1,4.1-1.4.9-3.4,1.4-6.2,1.4Z"></path><path class="st0" d="M1178.1,519.3c-2,0-3.7-.3-5.2-1-1.4-.7-2.5-1.7-3.3-2.9-.8-1.3-1.1-2.8-1.1-4.6v-3.6c0-1.8.4-3.3,1.2-4.5.8-1.3,1.9-2.2,3.3-2.9,1.4-.7,3.2-1,5.1-1s3.7.3,5.1,1c1.4.7,2.5,1.7,3.3,2.9.8,1.3,1.2,2.8,1.2,4.6v3.6c0,1.8-.4,3.3-1.2,4.6-.8,1.3-1.9,2.3-3.3,2.9-1.4.7-3.1,1-5.1,1ZM1178.1,516.6c2,0,3.5-.5,4.7-1.6,1.1-1,1.7-2.5,1.7-4.3v-3.5c0-1.8-.6-3.3-1.7-4.3-1.1-1-2.7-1.6-4.7-1.6s-3.5.5-4.7,1.6c-1.2,1.1-1.7,2.5-1.7,4.3v3.5c0,1.8.6,3.2,1.7,4.3,1.2,1.1,2.7,1.6,4.7,1.6Z"></path><path class="st0" d="M1196.2,510.9c0,2,.4,3.5,1.2,4.5.8,1,2,1.4,3.7,1.4s3.8-.7,5-2.1c1.2-1.4,1.7-3.4,1.7-6.1l1.4-2.6v2.4c0,3.5-.7,6.2-2.2,8-1.5,1.9-3.6,2.8-6.5,2.8s-4.5-.7-5.7-2-1.8-3.4-1.8-6.2v-12.1h3.2v11.8ZM1211.1,519h-2.3l-1-6.6v-13.4h3.3v20Z"></path><path class="st0" d="M1217.3,499h2.2l1,7.4v12.6h-3.2v-20ZM1219.5,508c0-3.1.6-5.4,1.8-7,1.2-1.6,2.9-2.4,5.2-2.4s.8,0,1.2,0c.4,0,.8.1,1.2.2l-.2,2.8c-.7-.2-1.5-.3-2.4-.3-1.9,0-3.4.6-4.3,1.8-1,1.2-1.5,3.1-1.5,5.6l-1-.9Z"></path><path class="st0" d="M1240,519.3c-1.9,0-3.5-.3-4.9-1-1.4-.7-2.5-1.7-3.2-2.9-.7-1.3-1.1-2.8-1.1-4.6v-3.6c0-1.8.4-3.3,1.1-4.5.8-1.3,1.8-2.2,3.2-2.9,1.4-.7,3-1,4.9-1,2.7,0,4.9.6,6.6,1.9,1.7,1.3,2.6,3,2.8,5.2l-3.1.3c-.3-1.6-1-2.8-2-3.6-1-.8-2.4-1.2-4.2-1.2s-3.4.5-4.5,1.6c-1.1,1.1-1.6,2.5-1.6,4.4v3.6c0,1.9.5,3.3,1.6,4.4,1.1,1,2.6,1.6,4.5,1.6s3.1-.4,4.2-1.2c1-.8,1.7-2,2-3.6l3.1.3c-.2,2.2-1.2,3.9-2.8,5.2-1.7,1.3-3.9,1.9-6.6,1.9Z"></path><path class="st0" d="M1262.6,519.3c-1.9,0-3.6-.3-4.9-1-1.3-.7-2.4-1.6-3.1-2.9-.7-1.3-1.1-2.8-1.1-4.6v-3.6c0-1.8.4-3.3,1.1-4.5.8-1.3,1.8-2.2,3.2-2.9,1.4-.7,3.1-1,5-1,3,0,5.2.8,6.8,2.3,1.6,1.6,2.4,3.8,2.4,6.7v2.3h-16v-2.1h13.4l-.5.9v-1.7c0-1.8-.5-3.2-1.6-4.2-1.1-1-2.6-1.5-4.4-1.5s-3.5.5-4.6,1.6-1.6,2.5-1.6,4.4v3.9c0,1.8.5,3.3,1.6,4.3,1,1,2.5,1.5,4.4,1.5s3.1-.3,4.1-1c1-.7,1.7-1.7,1.9-2.9l3.1.2c-.4,2-1.5,3.5-3.1,4.6-1.6,1.1-3.7,1.6-6.2,1.6Z"></path><path class="st0" d="M1285.4,517.1l10.8-9.8c1.1-1,2-1.9,2.6-2.6.7-.7,1.2-1.3,1.5-1.8s.6-1,.7-1.4c.1-.5.2-1,.2-1.5v-.5c0-1.3-.5-2.3-1.6-3-1.1-.7-2.6-1.1-4.6-1.1s-3.2.5-4.3,1.4-1.9,2.2-2.2,3.9l-3.1-.3c.4-2.4,1.5-4.2,3.1-5.5,1.7-1.3,3.8-1.9,6.4-1.9s5.3.6,7,1.7c1.7,1.1,2.5,2.7,2.5,4.8v.5c0,1-.1,1.9-.4,2.7s-.8,1.7-1.6,2.6-1.8,2-3.3,3.3l-10.7,10-1-2h17v2.6h-19.1v-1.9Z"></path><path class="st0" d="M1324.2,519.3c-2.1,0-3.8-.5-5-1.5s-1.8-2.4-1.8-4.1v-1c0-1.8.6-3.2,1.8-4.2s3-1.5,5.2-1.5,4.2.5,5.6,1.4c1.4,1,2.1,2.3,2.1,4.1v1.1c0,1.8-.7,3.2-2.1,4.2s-3.3,1.5-5.8,1.5ZM1330.7,512.4v-6.5c0-1.6-.4-2.7-1.3-3.4-.9-.7-2.2-1.1-4.1-1.1s-2.4.2-3.6.5-2.3.8-3.3,1.4l-.5-2.4c.7-.4,1.5-.7,2.4-1.1.9-.3,1.8-.6,2.8-.7,1-.2,1.9-.3,2.8-.3,2.7,0,4.7.6,6,1.8s2,3,2,5.3v13.2h-2.2l-1-6.6ZM1325.1,517.2c1.7,0,3.1-.4,4.1-1.1s1.5-1.7,1.5-2.9v-.6c0-1.1-.5-2-1.4-2.7-.9-.6-2.3-1-4-1s-2.8.3-3.6.9c-.8.6-1.3,1.6-1.3,2.9v.5c0,1.3.4,2.2,1.2,2.9.8.7,2,1,3.4,1Z"></path><path class="st0" d="M1348.4,519.3c-1.9,0-3.5-.3-4.9-1-1.4-.7-2.5-1.7-3.2-2.9-.7-1.3-1.1-2.8-1.1-4.6v-3.6c0-1.8.4-3.3,1.1-4.5.8-1.3,1.8-2.2,3.2-2.9,1.4-.7,3-1,4.9-1,2.7,0,4.9.6,6.6,1.9,1.7,1.3,2.6,3,2.8,5.2l-3.1.3c-.3-1.6-1-2.8-2-3.6-1-.8-2.4-1.2-4.2-1.2s-3.4.5-4.5,1.6-1.6,2.5-1.6,4.4v3.6c0,1.9.5,3.3,1.6,4.4,1.1,1,2.6,1.6,4.5,1.6s3.1-.4,4.2-1.2,1.7-2,2-3.6l3.1.3c-.2,2.2-1.2,3.9-2.8,5.2-1.7,1.3-3.9,1.9-6.6,1.9Z"></path><path class="st0" d="M1362.5,491.6h3.2v27.4h-3.2v-27.4ZM1363.1,512.6l11.2-13.6h3.8l-13.5,16.3-1.5-2.7ZM1368.3,508.6l2.3-1.7,7.7,12.1h-3.4l-6.6-10.4Z"></path><path class="st0" d="M1381.8,499h2.2l1,6.6v13.4h-3.2v-20ZM1396.6,507.2c0-2-.4-3.5-1.3-4.5-.8-.9-2.1-1.4-3.9-1.4s-3.7.7-4.8,2.1c-1.1,1.4-1.7,3.4-1.7,6.1l-1.4,2.6v-2.4c0-3.5.8-6.2,2.3-8.1,1.6-1.9,3.8-2.8,6.7-2.8s4.3.7,5.4,2c1.2,1.3,1.8,3.4,1.8,6.2v12h-3.2v-11.8Z"></path><path class="st0" d="M1414.6,519.3c-2,0-3.7-.3-5.2-1-1.4-.7-2.5-1.7-3.3-2.9-.8-1.3-1.1-2.8-1.1-4.6v-3.6c0-1.8.4-3.3,1.2-4.5.8-1.3,1.9-2.2,3.3-2.9,1.4-.7,3.2-1,5.1-1s3.7.3,5.1,1c1.4.7,2.5,1.7,3.3,2.9.8,1.3,1.2,2.8,1.2,4.6v3.6c0,1.8-.4,3.3-1.2,4.6-.8,1.3-1.9,2.3-3.3,2.9-1.4.7-3.1,1-5.1,1ZM1414.6,516.6c2,0,3.5-.5,4.7-1.6,1.1-1,1.7-2.5,1.7-4.3v-3.5c0-1.8-.6-3.3-1.7-4.3-1.1-1-2.7-1.6-4.7-1.6s-3.5.5-4.7,1.6c-1.2,1.1-1.7,2.5-1.7,4.3v3.5c0,1.8.6,3.2,1.7,4.3,1.2,1.1,2.7,1.6,4.7,1.6Z"></path><path class="st0" d="M1427.4,499h3.1l4.9,17.9h.1l5.1-17.9h4.3l5.2,17.9h.1l4.9-17.9h3.2l-5.3,20h-5.4l-4.8-16.4h-.1l-4.8,16.4h-5.4l-5.2-20Z"></path><path class="st0" d="M1465.8,491.6v27.4h-3.2v-27.4h3.2Z"></path><path class="st0" d="M1480.4,519.3c-1.9,0-3.6-.3-4.9-1-1.3-.7-2.4-1.6-3.1-2.9-.7-1.3-1.1-2.8-1.1-4.6v-3.6c0-1.8.4-3.3,1.1-4.5.8-1.3,1.8-2.2,3.2-2.9,1.4-.7,3.1-1,5-1,3,0,5.2.8,6.8,2.3,1.6,1.6,2.4,3.8,2.4,6.7v2.3h-16v-2.1h13.4l-.5.9v-1.7c0-1.8-.5-3.2-1.6-4.2-1.1-1-2.6-1.5-4.4-1.5s-3.5.5-4.6,1.6c-1.1,1-1.6,2.5-1.6,4.4v3.9c0,1.8.5,3.3,1.6,4.3,1,1,2.5,1.5,4.4,1.5s3.1-.3,4.1-1,1.7-1.7,1.9-2.9l3.1.2c-.4,2-1.5,3.5-3.1,4.6-1.6,1.1-3.7,1.6-6.2,1.6Z"></path><path class="st0" d="M1502.9,519.3c-2.6,0-4.6-.7-6.1-2.2-1.4-1.5-2.1-3.6-2.1-6.3v-3.6c0-2.7.7-4.8,2.1-6.3,1.4-1.5,3.5-2.2,6.1-2.2s3.5.4,4.8,1.1c1.4.8,2.5,1.8,3.2,3.2.8,1.4,1.1,3,1.1,4.9v1.9c0,1.9-.4,3.6-1.1,5-.8,1.4-1.8,2.5-3.2,3.3-1.4.8-3,1.2-4.9,1.2ZM1503.4,516.9c2.3,0,4-.7,5.3-2,1.3-1.3,1.9-3.1,1.9-5.4v-1.1c0-2.2-.6-4-1.9-5.3-1.3-1.3-3.1-1.9-5.3-1.9s-3.1.6-4,1.7c-1,1.1-1.4,2.7-1.4,4.7v3c0,2,.5,3.6,1.5,4.7,1,1.1,2.3,1.7,4,1.7ZM1510.7,512.7v-21.1h3.2v27.4h-2l-1.3-6.3Z"></path><path class="st0" d="M1524.6,525.9c-1.9,0-3.4-.4-4.5-1.2-1-.8-1.5-1.9-1.5-3.4s.5-2.7,1.5-3.4,2.5-1.2,4.5-1.2h6.2c1.9,0,3.4.4,4.5,1.2,1,.8,1.6,1.9,1.6,3.5s-.5,2.7-1.6,3.4c-1,.8-2.5,1.2-4.5,1.2h-6.2ZM1527.8,513.1c-2.6,0-4.6-.6-6.1-1.7-1.5-1.1-2.2-2.7-2.2-4.8v-1.3c0-2.1.7-3.7,2.2-4.8,1.5-1.1,3.5-1.7,6.1-1.7s4.6.6,6.1,1.7c1.4,1.1,2.2,2.8,2.2,4.8v1.3c0,2-.7,3.6-2.2,4.8-1.4,1.1-3.5,1.7-6.1,1.7ZM1523.6,517.5c-1,0-1.8-.2-2.4-.7-.6-.5-.9-1.1-.9-1.9s.3-1.5.9-2c.6-.5,1.4-.7,2.4-.7h4.1v.9h-2.5c-.7,0-1.2.2-1.6.5s-.5.7-.5,1.3c0,.6.2,1,.5,1.3.3.3.9.5,1.6.5h2.5v.9h-4.2ZM1530.5,523.7c2.2,0,3.3-.8,3.3-2.5s-1.1-2.5-3.3-2.5h-5.3c-2.2,0-3.4.8-3.4,2.5s1.1,2.5,3.4,2.5h5.3ZM1527.8,510.7c1.6,0,2.9-.4,3.8-1.1.9-.7,1.3-1.8,1.3-3.1v-1.1c0-1.4-.4-2.4-1.3-3.2-.9-.8-2.1-1.1-3.8-1.1s-2.8.4-3.7,1.1c-.9.8-1.3,1.8-1.3,3.2v1.1c0,1.3.4,2.4,1.3,3.1.9.8,2.1,1.1,3.7,1.1ZM1532,499.9l5.2-1.7h.9v2.8l-6,.4v-1.6Z"></path><path class="st0" d="M1550.1,519.3c-1.9,0-3.6-.3-4.9-1-1.3-.7-2.4-1.6-3.1-2.9-.7-1.3-1.1-2.8-1.1-4.6v-3.6c0-1.8.4-3.3,1.1-4.5.8-1.3,1.8-2.2,3.2-2.9,1.4-.7,3.1-1,5-1,3,0,5.2.8,6.8,2.3,1.6,1.6,2.4,3.8,2.4,6.7v2.3h-16v-2.1h13.4l-.5.9v-1.7c0-1.8-.5-3.2-1.6-4.2-1.1-1-2.6-1.5-4.4-1.5s-3.5.5-4.6,1.6c-1.1,1-1.6,2.5-1.6,4.4v3.9c0,1.8.5,3.3,1.6,4.3,1,1,2.5,1.5,4.4,1.5s3.1-.3,4.1-1,1.7-1.7,1.9-2.9l3.1.2c-.4,2-1.5,3.5-3.1,4.6-1.6,1.1-3.7,1.6-6.2,1.6Z"></path><path class="st0" d="M1572.2,519.3c-2.6,0-4.7-.5-6-1.5s-2.2-2.5-2.5-4.6h3.3c.1,1.2.7,2.2,1.5,2.8.9.6,2.1.9,3.7.9s2.8-.3,3.6-.8c.9-.5,1.3-1.3,1.3-2.3s-.2-1.4-.7-1.9c-.5-.4-1.1-.8-1.9-1-.8-.2-1.6-.4-2.6-.6-.9-.2-1.8-.4-2.8-.6-.9-.2-1.8-.5-2.6-.9-.8-.4-1.4-1-1.9-1.7-.5-.7-.7-1.7-.7-2.9,0-1.8.7-3.2,2.1-4.2,1.4-.9,3.4-1.4,6.1-1.4s3.1.2,4.2.6c1.1.4,2.1,1.1,2.7,1.9.7.9,1.1,1.9,1.3,3.2h-3.3c0-1-.6-1.9-1.4-2.5-.8-.6-2-.9-3.4-.9s-2.8.3-3.6.8c-.9.6-1.3,1.3-1.3,2.3s.2,1.4.7,1.9c.5.4,1.1.8,1.9,1s1.6.4,2.6.6c.9.2,1.9.4,2.8.6.9.2,1.8.5,2.6.9.8.4,1.4,1,1.9,1.7.5.7.7,1.7.7,2.9,0,1.8-.7,3.1-2.1,4.1-1.4.9-3.4,1.4-6.2,1.4Z"></path><path class="st0" d="M1594.7,499h2l1.2,6.3v20.4h-3.2v-26.6ZM1605.6,519.3c-1.8,0-3.4-.4-4.8-1.2-1.4-.8-2.5-1.9-3.2-3.3-.8-1.4-1.1-3.1-1.1-5v-1.9c0-1.9.4-3.5,1.2-4.9.8-1.4,1.9-2.4,3.2-3.2,1.4-.8,3-1.1,4.9-1.1s4.6.7,6,2.2c1.4,1.5,2.1,3.6,2.1,6.3v3.6c0,2.7-.7,4.8-2.1,6.3-1.4,1.5-3.5,2.2-6.1,2.2ZM1605.2,516.9c1.7,0,3.1-.6,4-1.7,1-1.1,1.4-2.7,1.4-4.7v-3c0-2-.5-3.6-1.4-4.7-1-1.1-2.3-1.7-4-1.7s-4,.6-5.3,1.9c-1.3,1.3-1.9,3-1.9,5.3v1.1c0,2.3.6,4.1,1.9,5.4,1.3,1.3,3.1,2,5.3,2Z"></path><path class="st0" d="M1619.4,499h2.2l1,7.4v12.6h-3.2v-20ZM1621.6,508c0-3.1.6-5.4,1.8-7,1.2-1.6,2.9-2.4,5.2-2.4s.8,0,1.2,0c.4,0,.8.1,1.2.2l-.2,2.8c-.7-.2-1.5-.3-2.4-.3-1.9,0-3.4.6-4.3,1.8-1,1.2-1.5,3.1-1.5,5.6l-1-.9Z"></path><path class="st0" d="M1642,519.3c-1.9,0-3.6-.3-4.9-1-1.3-.7-2.4-1.6-3.1-2.9-.7-1.3-1.1-2.8-1.1-4.6v-3.6c0-1.8.4-3.3,1.1-4.5.8-1.3,1.8-2.2,3.2-2.9,1.4-.7,3.1-1,5-1,3,0,5.2.8,6.8,2.3,1.6,1.6,2.4,3.8,2.4,6.7v2.3h-16v-2.1h13.4l-.5.9v-1.7c0-1.8-.5-3.2-1.6-4.2-1.1-1-2.6-1.5-4.4-1.5s-3.5.5-4.6,1.6c-1.1,1-1.6,2.5-1.6,4.4v3.9c0,1.8.5,3.3,1.6,4.3,1,1,2.5,1.5,4.4,1.5s3.1-.3,4.1-1,1.7-1.7,1.9-2.9l3.1.2c-.4,2-1.5,3.5-3.1,4.6-1.6,1.1-3.7,1.6-6.2,1.6Z"></path><path class="st0" d="M1656.7,499h2l1.2,6.3v20.4h-3.2v-26.6ZM1667.6,519.3c-1.8,0-3.4-.4-4.8-1.2-1.4-.8-2.5-1.9-3.2-3.3-.8-1.4-1.1-3.1-1.1-5v-1.9c0-1.9.4-3.5,1.2-4.9.8-1.4,1.9-2.4,3.2-3.2,1.4-.8,3-1.1,4.9-1.1s4.6.7,6,2.2c1.4,1.5,2.1,3.6,2.1,6.3v3.6c0,2.7-.7,4.8-2.1,6.3-1.4,1.5-3.5,2.2-6.1,2.2ZM1667.1,516.9c1.7,0,3.1-.6,4-1.7,1-1.1,1.4-2.7,1.4-4.7v-3c0-2-.5-3.6-1.4-4.7-1-1.1-2.3-1.7-4-1.7s-4,.6-5.3,1.9c-1.3,1.3-1.9,3-1.9,5.3v1.1c0,2.3.6,4.1,1.9,5.4,1.3,1.3,3.1,2,5.3,2Z"></path><path class="st0" d="M1687.2,519.3c-2.1,0-3.8-.5-5-1.5s-1.8-2.4-1.8-4.1v-1c0-1.8.6-3.2,1.8-4.2s3-1.5,5.2-1.5,4.2.5,5.6,1.4c1.4,1,2.1,2.3,2.1,4.1v1.1c0,1.8-.7,3.2-2.1,4.2s-3.3,1.5-5.8,1.5ZM1693.7,512.4v-6.5c0-1.6-.4-2.7-1.3-3.4-.9-.7-2.2-1.1-4.1-1.1s-2.4.2-3.6.5c-1.2.3-2.3.8-3.3,1.4l-.5-2.4c.7-.4,1.5-.7,2.4-1.1.9-.3,1.8-.6,2.8-.7,1-.2,1.9-.3,2.8-.3,2.7,0,4.7.6,6,1.8,1.3,1.2,2,3,2,5.3v13.2h-2.2l-1-6.6ZM1688.1,517.2c1.7,0,3.1-.4,4.1-1.1s1.5-1.7,1.5-2.9v-.6c0-1.1-.5-2-1.4-2.7-.9-.6-2.3-1-4-1s-2.8.3-3.6.9c-.8.6-1.3,1.6-1.3,2.9v.5c0,1.3.4,2.2,1.2,2.9.8.7,2,1,3.4,1Z"></path><path class="st0" d="M1702.8,499h2.2l1,7.4v12.6h-3.2v-20ZM1705,508c0-3.1.6-5.4,1.8-7,1.2-1.6,2.9-2.4,5.2-2.4s.8,0,1.2,0c.4,0,.8.1,1.2.2l-.2,2.8c-.7-.2-1.5-.3-2.4-.3-1.9,0-3.4.6-4.3,1.8-1,1.2-1.5,3.1-1.5,5.6l-1-.9Z"></path><path class="st0" d="M1722.8,519.3c-2.1,0-3.8-.5-5-1.5s-1.8-2.4-1.8-4.1v-1c0-1.8.6-3.2,1.8-4.2s3-1.5,5.2-1.5,4.2.5,5.6,1.4c1.4,1,2.1,2.3,2.1,4.1v1.1c0,1.8-.7,3.2-2.1,4.2s-3.3,1.5-5.8,1.5ZM1729.3,512.4v-6.5c0-1.6-.4-2.7-1.3-3.4-.9-.7-2.2-1.1-4.1-1.1s-2.4.2-3.6.5c-1.2.3-2.3.8-3.3,1.4l-.5-2.4c.7-.4,1.5-.7,2.4-1.1.9-.3,1.8-.6,2.8-.7,1-.2,1.9-.3,2.8-.3,2.7,0,4.7.6,6,1.8,1.3,1.2,2,3,2,5.3v13.2h-2.2l-1-6.6ZM1723.7,517.2c1.7,0,3.1-.4,4.1-1.1s1.5-1.7,1.5-2.9v-.6c0-1.1-.5-2-1.4-2.7-.9-.6-2.3-1-4-1s-2.8.3-3.6.9c-.8.6-1.3,1.6-1.3,2.9v.5c0,1.3.4,2.2,1.2,2.9.8.7,2,1,3.4,1Z"></path><path class="st0" d="M1735.9,499h12v2.4h-12v-2.4ZM1744.9,519.3c-1.9,0-3.2-.5-4-1.4-.8-.9-1.3-2.3-1.3-4.3v-14.4l.9-5.1h2.3v19.1c0,1.3.2,2.1.6,2.6.4.5,1.2.7,2.3.7s.7,0,1.1,0c.4,0,.8-.1,1.1-.3l.5,2.4c-.4,0-.8.2-1.2.3-.4,0-.8.2-1.3.2s-.8,0-1.2,0Z"></path><path class="st0" d="M1755.7,491.9v4.5h-3.6v-4.5h3.6ZM1755.6,499v20h-3.2v-20h3.2Z"></path><path class="st0" d="M1770.8,519.3c-2,0-3.7-.3-5.2-1-1.4-.7-2.5-1.7-3.3-2.9-.8-1.3-1.1-2.8-1.1-4.6v-3.6c0-1.8.4-3.3,1.2-4.5.8-1.3,1.9-2.2,3.3-2.9,1.4-.7,3.2-1,5.1-1s3.7.3,5.1,1c1.4.7,2.5,1.7,3.3,2.9.8,1.3,1.2,2.8,1.2,4.6v3.6c0,1.8-.4,3.3-1.2,4.6-.8,1.3-1.9,2.3-3.3,2.9-1.4.7-3.1,1-5.1,1ZM1770.8,516.6c2,0,3.5-.5,4.7-1.6,1.1-1,1.7-2.5,1.7-4.3v-3.5c0-1.8-.6-3.3-1.7-4.3-1.1-1-2.7-1.6-4.7-1.6s-3.5.5-4.7,1.6c-1.2,1.1-1.7,2.5-1.7,4.3v3.5c0,1.8.6,3.2,1.7,4.3,1.2,1.1,2.7,1.6,4.7,1.6Z"></path><path class="st0" d="M1785.9,499h2.2l1,6.6v13.4h-3.2v-20ZM1800.8,507.2c0-2-.4-3.5-1.3-4.5-.8-.9-2.1-1.4-3.9-1.4s-3.7.7-4.8,2.1c-1.1,1.4-1.7,3.4-1.7,6.1l-1.4,2.6v-2.4c0-3.5.8-6.2,2.3-8.1,1.6-1.9,3.8-2.8,6.7-2.8s4.3.7,5.4,2c1.2,1.3,1.8,3.4,1.8,6.2v12h-3.2v-11.8Z"></path></g><path class="st7" d="M974.5,692.5c0-23.8,19.2-43,43-43s43,19.2,43,43-19.2,43-43,43-43-19.2-43-43Z"></path><g class="st1"><path class="st2" d="M1006.4,701.7l11.6-9.5c.8-.7,1.5-1.4,2.1-1.9s.9-1,1.2-1.4.5-.8.6-1.2c.1-.4.2-.8.2-1.3v-.3c0-1.1-.4-1.9-1.2-2.4-.8-.6-2-.9-3.6-.9s-2.6.4-3.4,1.1c-.9.7-1.5,1.8-1.8,3.2l-5.6-.6c.4-2.5,1.6-4.4,3.4-5.7s4.3-2,7.3-2,6.1.6,7.9,1.8c1.9,1.2,2.8,2.9,2.8,5.1v.5c0,1.1-.2,2.1-.5,2.9-.3.9-.8,1.8-1.6,2.6-.8.9-1.8,1.9-3.2,3.1l-10.8,9-1.8-3h17.9v4.1h-21.6v-3.3Z"></path></g><g class="st1"><path class="st0" d="M1109.7,678.1h4.9l9,25.9h-3.3l-8.1-23.6h-.1l-8.1,23.6h-3.3l9.1-25.9ZM1105.6,694.8h13v2.4h-13v-2.4Z"></path><path class="st0" d="M1134.2,704.3c-2.6,0-4.7-.5-6-1.5-1.4-1-2.2-2.5-2.5-4.6h3.3c.1,1.2.7,2.2,1.5,2.8.9.6,2.1.9,3.7.9s2.8-.3,3.6-.8c.9-.5,1.3-1.3,1.3-2.3s-.2-1.4-.7-1.9c-.5-.4-1.1-.8-1.9-1-.8-.2-1.6-.4-2.6-.6-.9-.2-1.8-.4-2.8-.6-.9-.2-1.8-.5-2.6-.9-.8-.4-1.4-1-1.9-1.7s-.7-1.7-.7-2.9c0-1.8.7-3.2,2.1-4.2,1.4-.9,3.4-1.4,6.1-1.4s3.1.2,4.2.6c1.1.4,2.1,1.1,2.7,1.9.7.9,1.1,1.9,1.3,3.2h-3.3c0-1-.6-1.9-1.4-2.5-.8-.6-2-.9-3.4-.9s-2.8.3-3.6.8c-.9.6-1.3,1.3-1.3,2.3s.2,1.4.7,1.9c.5.4,1.1.8,1.9,1s1.6.4,2.6.6c.9.2,1.9.4,2.8.6.9.2,1.8.5,2.6.9.8.4,1.4,1,1.9,1.7.5.7.7,1.7.7,2.9,0,1.8-.7,3.1-2.1,4.1-1.4.9-3.4,1.4-6.2,1.4Z"></path><path class="st0" d="M1147.3,676.6h3.2v27.4h-3.2v-27.4ZM1148,697.6l11.2-13.6h3.8l-13.5,16.3-1.5-2.7ZM1153.1,693.6l2.3-1.7,7.7,12.1h-3.4l-6.6-10.4Z"></path><path class="st0" d="M1175.9,678.1h9.2c2.6,0,4.5.6,5.8,1.9,1.3,1.2,2,3.1,2,5.6v1.5c0,2.4-.7,4.2-2,5.5-1.3,1.2-3.3,1.8-5.8,1.8h-6.2v-2.5h5.1c2,0,3.4-.4,4.4-1.2.9-.8,1.4-2.1,1.4-3.8v-1.2c0-1.8-.5-3.2-1.4-4-.9-.8-2.4-1.2-4.4-1.2h-5.7l.7-1v24.5h-3.2v-25.9ZM1185.5,693.6h3.3l4.6,10.4h-3.3l-4.5-10.4Z"></path><path class="st0" d="M1206.3,704.3c-1.9,0-3.6-.3-4.9-1-1.3-.7-2.4-1.6-3.1-2.9s-1.1-2.8-1.1-4.6v-3.6c0-1.8.4-3.3,1.1-4.5.8-1.3,1.8-2.2,3.2-2.9,1.4-.7,3.1-1,5-1,3,0,5.2.8,6.8,2.3,1.6,1.6,2.4,3.8,2.4,6.7v2.3h-16v-2.1h13.4l-.5.9v-1.7c0-1.8-.5-3.2-1.6-4.2-1.1-1-2.6-1.5-4.4-1.5s-3.5.5-4.6,1.6c-1.1,1-1.6,2.5-1.6,4.4v3.9c0,1.8.5,3.3,1.6,4.3,1,1,2.5,1.5,4.4,1.5s3.1-.3,4.1-1c1-.7,1.7-1.7,1.9-2.9l3.1.2c-.4,2-1.5,3.5-3.1,4.6s-3.7,1.6-6.2,1.6Z"></path><path class="st0" d="M1228.5,704.3c-2.6,0-4.7-.5-6-1.5s-2.2-2.5-2.5-4.6h3.3c.1,1.2.7,2.2,1.5,2.8s2.1.9,3.7.9,2.8-.3,3.6-.8c.9-.5,1.3-1.3,1.3-2.3s-.2-1.4-.7-1.9c-.5-.4-1.1-.8-1.9-1-.8-.2-1.6-.4-2.6-.6-.9-.2-1.9-.4-2.8-.6-.9-.2-1.8-.5-2.6-.9-.8-.4-1.4-1-1.9-1.7-.5-.7-.7-1.7-.7-2.9,0-1.8.7-3.2,2.1-4.2,1.4-.9,3.4-1.4,6.1-1.4s3.1.2,4.2.6c1.1.4,2.1,1.1,2.7,1.9.7.9,1.1,1.9,1.3,3.2h-3.3c0-1-.6-1.9-1.4-2.5-.8-.6-2-.9-3.4-.9s-2.8.3-3.6.8c-.9.6-1.3,1.3-1.3,2.3s.2,1.4.7,1.9c.5.4,1.1.8,1.9,1,.8.2,1.6.4,2.6.6.9.2,1.9.4,2.8.6.9.2,1.8.5,2.6.9.8.4,1.4,1,1.9,1.7.5.7.7,1.7.7,2.9,0,1.8-.7,3.1-2.1,4.1-1.4.9-3.4,1.4-6.2,1.4Z"></path><path class="st0" d="M1250.6,704.3c-2,0-3.7-.3-5.2-1-1.4-.7-2.5-1.7-3.3-2.9-.8-1.3-1.1-2.8-1.1-4.6v-3.6c0-1.8.4-3.3,1.2-4.5.8-1.3,1.9-2.2,3.3-2.9,1.4-.7,3.2-1,5.1-1s3.7.3,5.1,1c1.4.7,2.5,1.7,3.3,2.9.8,1.3,1.2,2.8,1.2,4.6v3.6c0,1.8-.4,3.3-1.2,4.6-.8,1.3-1.9,2.3-3.3,2.9-1.4.7-3.1,1-5.1,1ZM1250.6,701.6c2,0,3.5-.5,4.7-1.6,1.1-1,1.7-2.5,1.7-4.3v-3.5c0-1.8-.6-3.3-1.7-4.3-1.1-1-2.7-1.6-4.7-1.6s-3.5.5-4.7,1.6c-1.2,1.1-1.7,2.5-1.7,4.3v3.5c0,1.8.6,3.2,1.7,4.3s2.7,1.6,4.7,1.6Z"></path><path class="st0" d="M1268.6,695.9c0,2,.4,3.5,1.2,4.5.8,1,2,1.4,3.7,1.4s3.8-.7,5-2.1c1.2-1.4,1.7-3.4,1.7-6.1l1.4-2.6v2.4c0,3.5-.7,6.2-2.2,8-1.5,1.9-3.6,2.8-6.5,2.8s-4.5-.7-5.7-2c-1.2-1.3-1.8-3.4-1.8-6.2v-12.1h3.2v11.8ZM1283.5,704h-2.3l-1-6.6v-13.4h3.3v20Z"></path><path class="st0" d="M1289.7,684h2.2l1,7.4v12.6h-3.2v-20ZM1292,693c0-3.1.6-5.4,1.8-7,1.2-1.6,2.9-2.4,5.2-2.4s.8,0,1.2,0c.4,0,.8.1,1.2.2l-.2,2.8c-.7-.2-1.5-.3-2.4-.3-1.9,0-3.4.6-4.3,1.8-1,1.2-1.5,3.1-1.5,5.6l-1-.9Z"></path><path class="st0" d="M1312.5,704.3c-1.9,0-3.5-.3-4.9-1-1.4-.7-2.5-1.7-3.2-2.9-.7-1.3-1.1-2.8-1.1-4.6v-3.6c0-1.8.4-3.3,1.1-4.5.8-1.3,1.8-2.2,3.2-2.9,1.4-.7,3-1,4.9-1,2.7,0,4.9.6,6.6,1.9,1.7,1.3,2.6,3,2.8,5.2l-3.1.3c-.3-1.6-1-2.8-2-3.6-1-.8-2.4-1.2-4.2-1.2s-3.4.5-4.5,1.6c-1.1,1.1-1.6,2.5-1.6,4.4v3.6c0,1.9.5,3.3,1.6,4.4,1.1,1,2.6,1.6,4.5,1.6s3.1-.4,4.2-1.2c1-.8,1.7-2,2-3.6l3.1.3c-.2,2.2-1.2,3.9-2.8,5.2-1.7,1.3-3.9,1.9-6.6,1.9Z"></path><path class="st0" d="M1335,704.3c-1.9,0-3.6-.3-4.9-1-1.3-.7-2.4-1.6-3.1-2.9-.7-1.3-1.1-2.8-1.1-4.6v-3.6c0-1.8.4-3.3,1.1-4.5.8-1.3,1.8-2.2,3.2-2.9,1.4-.7,3.1-1,5-1,3,0,5.2.8,6.8,2.3,1.6,1.6,2.4,3.8,2.4,6.7v2.3h-16v-2.1h13.4l-.5.9v-1.7c0-1.8-.5-3.2-1.6-4.2-1.1-1-2.6-1.5-4.4-1.5s-3.5.5-4.6,1.6-1.6,2.5-1.6,4.4v3.9c0,1.8.5,3.3,1.6,4.3,1,1,2.5,1.5,4.4,1.5s3.1-.3,4.1-1c1-.7,1.7-1.7,1.9-2.9l3.1.2c-.4,2-1.5,3.5-3.1,4.6-1.6,1.1-3.7,1.6-6.2,1.6Z"></path><path class="st0" d="M1357.8,702.1l10.8-9.8c1.1-1,2-1.9,2.6-2.6.7-.7,1.2-1.3,1.5-1.8.4-.5.6-1,.7-1.4.1-.5.2-1,.2-1.5v-.5c0-1.3-.5-2.3-1.6-3-1.1-.7-2.6-1.1-4.6-1.1s-3.2.5-4.3,1.4c-1.1.9-1.9,2.2-2.2,3.9l-3.1-.3c.4-2.4,1.5-4.2,3.1-5.5,1.7-1.3,3.8-1.9,6.4-1.9s5.3.6,7,1.7c1.7,1.1,2.5,2.7,2.5,4.8v.5c0,1-.1,1.9-.4,2.7-.3.8-.8,1.7-1.6,2.6s-1.8,2-3.3,3.3l-10.7,10-1-2h17v2.6h-19.1v-1.9Z"></path><path class="st0" d="M1388.3,684h12v2.4h-12v-2.4ZM1397.3,704.3c-1.8,0-3.2-.5-4-1.4-.8-.9-1.3-2.3-1.3-4.3v-14.4l.9-5.1h2.3v19.1c0,1.3.2,2.1.6,2.6.4.5,1.2.7,2.3.7s.7,0,1.1,0c.4,0,.8-.1,1.1-.3l.5,2.4c-.4,0-.8.2-1.2.3-.4,0-.8.2-1.3.2s-.8,0-1.2,0Z"></path><path class="st0" d="M1412.9,704.3c-2,0-3.7-.3-5.2-1-1.4-.7-2.5-1.7-3.3-2.9-.8-1.3-1.1-2.8-1.1-4.6v-3.6c0-1.8.4-3.3,1.2-4.5.8-1.3,1.9-2.2,3.3-2.9,1.4-.7,3.2-1,5.1-1s3.7.3,5.1,1c1.4.7,2.5,1.7,3.3,2.9.8,1.3,1.2,2.8,1.2,4.6v3.6c0,1.8-.4,3.3-1.2,4.6-.8,1.3-1.9,2.3-3.3,2.9-1.4.7-3.1,1-5.1,1ZM1412.9,701.6c2,0,3.5-.5,4.7-1.6,1.1-1,1.7-2.5,1.7-4.3v-3.5c0-1.8-.6-3.3-1.7-4.3-1.1-1-2.7-1.6-4.7-1.6s-3.5.5-4.7,1.6c-1.2,1.1-1.7,2.5-1.7,4.3v3.5c0,1.8.6,3.2,1.7,4.3,1.2,1.1,2.7,1.6,4.7,1.6Z"></path><path class="st0" d="M1437.5,684h2l1.2,6.3v20.4h-3.2v-26.6ZM1448.4,704.3c-1.8,0-3.4-.4-4.8-1.2-1.4-.8-2.5-1.9-3.2-3.3-.8-1.4-1.1-3.1-1.1-5v-1.9c0-1.9.4-3.5,1.2-4.9.8-1.4,1.9-2.4,3.2-3.2,1.4-.8,3-1.1,4.9-1.1s4.6.7,6,2.2c1.4,1.5,2.1,3.6,2.1,6.3v3.6c0,2.7-.7,4.8-2.1,6.3-1.4,1.5-3.5,2.2-6.1,2.2ZM1447.9,701.9c1.7,0,3.1-.6,4-1.7,1-1.1,1.4-2.7,1.4-4.7v-3c0-2-.5-3.6-1.4-4.7-1-1.1-2.3-1.7-4-1.7s-4,.6-5.3,1.9c-1.3,1.3-1.9,3-1.9,5.3v1.1c0,2.3.6,4.1,1.9,5.4,1.3,1.3,3.1,2,5.3,2Z"></path><path class="st0" d="M1462.2,684h2.2l1,7.4v12.6h-3.2v-20ZM1464.4,693c0-3.1.6-5.4,1.8-7,1.2-1.6,2.9-2.4,5.2-2.4s.8,0,1.2,0c.4,0,.8.1,1.2.2l-.2,2.8c-.7-.2-1.5-.3-2.4-.3-1.9,0-3.4.6-4.3,1.8-1,1.2-1.5,3.1-1.5,5.6l-1-.9Z"></path><path class="st0" d="M1484.8,704.3c-1.9,0-3.6-.3-4.9-1-1.3-.7-2.4-1.6-3.1-2.9-.7-1.3-1.1-2.8-1.1-4.6v-3.6c0-1.8.4-3.3,1.1-4.5.8-1.3,1.8-2.2,3.2-2.9,1.4-.7,3.1-1,5-1,3,0,5.2.8,6.8,2.3,1.6,1.6,2.4,3.8,2.4,6.7v2.3h-16v-2.1h13.4l-.5.9v-1.7c0-1.8-.5-3.2-1.6-4.2-1.1-1-2.6-1.5-4.4-1.5s-3.5.5-4.6,1.6c-1.1,1-1.6,2.5-1.6,4.4v3.9c0,1.8.5,3.3,1.6,4.3,1,1,2.5,1.5,4.4,1.5s3.1-.3,4.1-1,1.7-1.7,1.9-2.9l3.1.2c-.4,2-1.5,3.5-3.1,4.6-1.6,1.1-3.7,1.6-6.2,1.6Z"></path><path class="st0" d="M1499.5,684h2l1.2,6.3v20.4h-3.2v-26.6ZM1510.4,704.3c-1.8,0-3.4-.4-4.8-1.2-1.4-.8-2.5-1.9-3.2-3.3-.8-1.4-1.1-3.1-1.1-5v-1.9c0-1.9.4-3.5,1.2-4.9.8-1.4,1.9-2.4,3.2-3.2,1.4-.8,3-1.1,4.9-1.1s4.6.7,6,2.2c1.4,1.5,2.1,3.6,2.1,6.3v3.6c0,2.7-.7,4.8-2.1,6.3-1.4,1.5-3.5,2.2-6.1,2.2ZM1509.9,701.9c1.7,0,3.1-.6,4-1.7,1-1.1,1.4-2.7,1.4-4.7v-3c0-2-.5-3.6-1.4-4.7-1-1.1-2.3-1.7-4-1.7s-4,.6-5.3,1.9c-1.3,1.3-1.9,3-1.9,5.3v1.1c0,2.3.6,4.1,1.9,5.4,1.3,1.3,3.1,2,5.3,2Z"></path><path class="st0" d="M1530,704.3c-2.1,0-3.8-.5-5-1.5s-1.8-2.4-1.8-4.1v-1c0-1.8.6-3.2,1.8-4.2s3-1.5,5.2-1.5,4.2.5,5.6,1.4c1.4,1,2.1,2.3,2.1,4.1v1.1c0,1.8-.7,3.2-2.1,4.2s-3.3,1.5-5.8,1.5ZM1536.5,697.4v-6.5c0-1.6-.4-2.7-1.3-3.4-.9-.7-2.2-1.1-4.1-1.1s-2.4.2-3.6.5c-1.2.3-2.3.8-3.3,1.4l-.5-2.4c.7-.4,1.5-.7,2.4-1.1.9-.3,1.8-.6,2.8-.7,1-.2,1.9-.3,2.8-.3,2.7,0,4.7.6,6,1.8,1.3,1.2,2,3,2,5.3v13.2h-2.2l-1-6.6ZM1530.9,702.2c1.7,0,3.1-.4,4.1-1.1s1.5-1.7,1.5-2.9v-.6c0-1.1-.5-2-1.4-2.7-.9-.6-2.3-1-4-1s-2.8.3-3.6.9c-.8.6-1.3,1.6-1.3,2.9v.5c0,1.3.4,2.2,1.2,2.9.8.7,2,1,3.4,1Z"></path><path class="st0" d="M1545.6,684h2.2l1,7.4v12.6h-3.2v-20ZM1547.8,693c0-3.1.6-5.4,1.8-7,1.2-1.6,2.9-2.4,5.2-2.4s.8,0,1.2,0c.4,0,.8.1,1.2.2l-.2,2.8c-.7-.2-1.5-.3-2.4-.3-1.9,0-3.4.6-4.3,1.8-1,1.2-1.5,3.1-1.5,5.6l-1-.9Z"></path><path class="st0" d="M1568.2,704.3c-1.9,0-3.6-.3-4.9-1-1.3-.7-2.4-1.6-3.1-2.9-.7-1.3-1.1-2.8-1.1-4.6v-3.6c0-1.8.4-3.3,1.1-4.5.8-1.3,1.8-2.2,3.2-2.9,1.4-.7,3.1-1,5-1,3,0,5.2.8,6.8,2.3,1.6,1.6,2.4,3.8,2.4,6.7v2.3h-16v-2.1h13.4l-.5.9v-1.7c0-1.8-.5-3.2-1.6-4.2-1.1-1-2.6-1.5-4.4-1.5s-3.5.5-4.6,1.6c-1.1,1-1.6,2.5-1.6,4.4v3.9c0,1.8.5,3.3,1.6,4.3,1,1,2.5,1.5,4.4,1.5s3.1-.3,4.1-1,1.7-1.7,1.9-2.9l3.1.2c-.4,2-1.5,3.5-3.1,4.6-1.6,1.1-3.7,1.6-6.2,1.6Z"></path><path class="st0" d="M1590.2,684h12v2.4h-12v-2.4ZM1599.1,704.3c-1.9,0-3.2-.5-4-1.4-.8-.9-1.3-2.3-1.3-4.3v-14.4l.9-5.1h2.3v19.1c0,1.3.2,2.1.6,2.6.4.5,1.2.7,2.3.7s.7,0,1.1,0c.4,0,.8-.1,1.1-.3l.5,2.4c-.4,0-.8.2-1.2.3-.4,0-.8.2-1.3.2s-.8,0-1.2,0Z"></path><path class="st0" d="M1614.7,704.3c-2,0-3.7-.3-5.2-1-1.4-.7-2.5-1.7-3.3-2.9-.8-1.3-1.1-2.8-1.1-4.6v-3.6c0-1.8.4-3.3,1.2-4.5.8-1.3,1.9-2.2,3.3-2.9,1.4-.7,3.2-1,5.1-1s3.7.3,5.1,1c1.4.7,2.5,1.7,3.3,2.9.8,1.3,1.2,2.8,1.2,4.6v3.6c0,1.8-.4,3.3-1.2,4.6-.8,1.3-1.9,2.3-3.3,2.9-1.4.7-3.1,1-5.1,1ZM1614.7,701.6c2,0,3.5-.5,4.7-1.6,1.1-1,1.7-2.5,1.7-4.3v-3.5c0-1.8-.6-3.3-1.7-4.3-1.1-1-2.7-1.6-4.7-1.6s-3.5.5-4.7,1.6c-1.2,1.1-1.7,2.5-1.7,4.3v3.5c0,1.8.6,3.2,1.7,4.3,1.2,1.1,2.7,1.6,4.7,1.6Z"></path><path class="st0" d="M1647.8,704.3c-1.9,0-3.5-.3-4.9-1-1.4-.7-2.5-1.7-3.2-2.9-.7-1.3-1.1-2.8-1.1-4.6v-3.6c0-1.8.4-3.3,1.1-4.5.8-1.3,1.8-2.2,3.2-2.9,1.4-.7,3-1,4.9-1,2.7,0,4.9.6,6.6,1.9,1.7,1.3,2.6,3,2.8,5.2l-3.1.3c-.3-1.6-1-2.8-2-3.6-1-.8-2.4-1.2-4.2-1.2s-3.4.5-4.5,1.6-1.6,2.5-1.6,4.4v3.6c0,1.9.5,3.3,1.6,4.4,1.1,1,2.6,1.6,4.5,1.6s3.1-.4,4.2-1.2,1.7-2,2-3.6l3.1.3c-.2,2.2-1.2,3.9-2.8,5.2-1.7,1.3-3.9,1.9-6.6,1.9Z"></path><path class="st0" d="M1670.9,704.3c-2,0-3.7-.3-5.2-1-1.4-.7-2.5-1.7-3.3-2.9-.8-1.3-1.1-2.8-1.1-4.6v-3.6c0-1.8.4-3.3,1.2-4.5.8-1.3,1.9-2.2,3.3-2.9,1.4-.7,3.2-1,5.1-1s3.7.3,5.1,1c1.4.7,2.5,1.7,3.3,2.9.8,1.3,1.2,2.8,1.2,4.6v3.6c0,1.8-.4,3.3-1.2,4.6-.8,1.3-1.9,2.3-3.3,2.9-1.4.7-3.1,1-5.1,1ZM1670.9,701.6c2,0,3.5-.5,4.7-1.6,1.1-1,1.7-2.5,1.7-4.3v-3.5c0-1.8-.6-3.3-1.7-4.3-1.1-1-2.7-1.6-4.7-1.6s-3.5.5-4.7,1.6c-1.2,1.1-1.7,2.5-1.7,4.3v3.5c0,1.8.6,3.2,1.7,4.3,1.2,1.1,2.7,1.6,4.7,1.6Z"></path><path class="st0" d="M1686.1,684h2.2l1,6.9v13.1h-3.2v-20ZM1700.7,692.2c0-2-.4-3.5-1.3-4.5-.8-.9-2.1-1.4-3.8-1.4s-3.6.7-4.7,2.1c-1.1,1.4-1.6,3.4-1.6,6.1l-1.4,2.6v-2.4c0-3.5.8-6.2,2.3-8.1,1.5-1.9,3.7-2.8,6.6-2.8s4.2.7,5.4,2c1.2,1.3,1.7,3.4,1.7,6.2v12.1h-3.2v-11.8ZM1715.3,692.2c0-2-.4-3.5-1.2-4.5-.8-.9-2.1-1.4-3.8-1.4s-3.6.7-4.7,2.1c-1.1,1.4-1.6,3.4-1.6,6.1l-1.5,2.6v-2.4c0-3.5.8-6.2,2.3-8.1,1.6-1.9,3.8-2.8,6.7-2.8s4.2.7,5.4,2c1.2,1.3,1.7,3.4,1.7,6.2v12.1h-3.3v-11.8Z"></path><path class="st0" d="M1724.5,684h2.2l1,6.9v13.1h-3.2v-20ZM1739.1,692.2c0-2-.4-3.5-1.3-4.5-.8-.9-2.1-1.4-3.8-1.4s-3.6.7-4.7,2.1c-1.1,1.4-1.6,3.4-1.6,6.1l-1.4,2.6v-2.4c0-3.5.8-6.2,2.3-8.1,1.5-1.9,3.7-2.8,6.6-2.8s4.2.7,5.4,2c1.2,1.3,1.7,3.4,1.7,6.2v12.1h-3.2v-11.8ZM1753.7,692.2c0-2-.4-3.5-1.2-4.5-.8-.9-2.1-1.4-3.8-1.4s-3.6.7-4.7,2.1c-1.1,1.4-1.6,3.4-1.6,6.1l-1.5,2.6v-2.4c0-3.5.8-6.2,2.3-8.1,1.6-1.9,3.8-2.8,6.7-2.8s4.2.7,5.4,2c1.2,1.3,1.7,3.4,1.7,6.2v12.1h-3.3v-11.8Z"></path><path class="st0" d="M1766.1,676.9v4.5h-3.6v-4.5h3.6ZM1766,684v20h-3.2v-20h3.2Z"></path><path class="st0" d="M1769.8,684h12v2.4h-12v-2.4ZM1778.8,704.3c-1.9,0-3.2-.5-4-1.4-.8-.9-1.3-2.3-1.3-4.3v-14.4l.9-5.1h2.3v19.1c0,1.3.2,2.1.6,2.6.4.5,1.2.7,2.3.7s.7,0,1.1,0c.4,0,.8-.1,1.1-.3l.5,2.4c-.4,0-.8.2-1.2.3-.4,0-.8.2-1.3.2s-.8,0-1.2,0Z"></path></g><path class="st8" d="M341.5,69.6c0,34.3,111.3,62.1,248.5,62.1s248.5-27.8,248.5-62.1v680.8c0,34.3-111.3,62.1-248.5,62.1s-248.5-27.8-248.5-62.1V69.6Z"></path><path class="st6" d="M341.5,69.6c0-34.3,111.3-62.1,248.5-62.1s248.5,27.8,248.5,62.1-111.3,62.1-248.5,62.1-248.5-27.8-248.5-62.1Z"></path><path class="st3" d="M838.5,69.6c0,34.3-111.3,62.1-248.5,62.1s-248.5-27.8-248.5-62.1S452.8,7.5,590,7.5s248.5,27.8,248.5,62.1v680.8c0,34.3-111.3,62.1-248.5,62.1s-248.5-27.8-248.5-62.1V69.6"></path><g class="st1"><path class="st2" d="M465.5,424.4h12c3.4,0,5.9.8,7.6,2.4,1.7,1.6,2.5,4.1,2.5,7.3v1.9c0,3.1-.8,5.5-2.5,7.1-1.7,1.6-4.2,2.4-7.6,2.4h-8v-3.2h6.7c2.6,0,4.4-.5,5.7-1.6,1.2-1.1,1.8-2.7,1.8-4.9v-1.5c0-2.4-.6-4.1-1.8-5.2-1.2-1.1-3.1-1.6-5.7-1.6h-7.4l1-1.3v31.7h-4.2v-33.6ZM478,444.5h4.2l5.9,13.5h-4.3l-5.9-13.5Z"></path><path class="st2" d="M505,458.4c-2.5,0-4.6-.4-6.4-1.3-1.7-.8-3.1-2.1-4-3.7-.9-1.6-1.4-3.6-1.4-6v-4.7c0-2.3.5-4.2,1.5-5.9,1-1.6,2.4-2.9,4.2-3.8,1.8-.9,4-1.3,6.5-1.3,3.8,0,6.8,1,8.9,3,2.1,2,3.1,4.9,3.1,8.7v2.9h-20.8v-2.7h17.4l-.7,1.1v-2.3c0-2.3-.7-4.2-2.1-5.5-1.4-1.3-3.3-2-5.8-2s-4.5.7-6,2c-1.4,1.3-2.1,3.2-2.1,5.7v5.1c0,2.4.7,4.2,2,5.5,1.4,1.3,3.3,1.9,5.7,1.9s4-.4,5.4-1.3c1.4-.9,2.2-2.2,2.5-3.8l4,.2c-.6,2.6-1.9,4.6-4,6-2.1,1.4-4.8,2.1-8,2.1Z"></path><path class="st2" d="M533.8,458.3c-3.4,0-6-.6-7.8-1.9-1.8-1.3-2.9-3.3-3.3-6h4.3c.2,1.6.8,2.9,2,3.7,1.1.8,2.7,1.2,4.8,1.2s3.6-.3,4.7-1,1.7-1.7,1.7-3-.3-1.8-.9-2.4-1.4-1-2.4-1.3c-1-.3-2.1-.5-3.3-.7-1.2-.2-2.4-.5-3.6-.7-1.2-.3-2.3-.7-3.3-1.2-1-.5-1.8-1.3-2.4-2.2-.6-.9-.9-2.2-.9-3.8,0-2.4.9-4.2,2.7-5.4,1.8-1.2,4.5-1.8,7.9-1.8s4,.3,5.4.8c1.5.6,2.7,1.4,3.6,2.5.9,1.1,1.4,2.5,1.7,4.1l-4.3.2c-.1-1.5-.7-2.6-1.8-3.4-1.1-.8-2.5-1.2-4.5-1.2s-3.6.4-4.7,1.1-1.7,1.7-1.7,3,.3,1.9.9,2.4,1.4,1,2.4,1.3c1,.3,2.1.6,3.3.8,1.2.2,2.4.5,3.6.7,1.2.3,2.3.7,3.3,1.2,1,.5,1.8,1.3,2.4,2.2.6.9.9,2.2.9,3.7,0,2.3-.9,4.1-2.7,5.3-1.8,1.2-4.5,1.8-8,1.8Z"></path><path class="st2" d="M562.4,458.4c-2.6,0-4.8-.4-6.7-1.3-1.9-.9-3.3-2.2-4.3-3.8-1-1.7-1.5-3.6-1.5-5.9v-4.6c0-2.3.5-4.2,1.5-5.9,1-1.6,2.4-2.9,4.3-3.8,1.9-.9,4.1-1.3,6.6-1.3s4.8.4,6.7,1.3c1.9.9,3.3,2.2,4.3,3.8,1,1.7,1.5,3.6,1.5,5.9v4.6c0,2.3-.5,4.2-1.5,5.9-1,1.7-2.4,2.9-4.3,3.8-1.9.9-4.1,1.3-6.7,1.3ZM562.4,454.9c2.6,0,4.6-.7,6.1-2,1.5-1.4,2.2-3.2,2.2-5.6v-4.5c0-2.4-.7-4.2-2.2-5.6-1.5-1.4-3.5-2-6.1-2s-4.5.7-6,2.1c-1.5,1.4-2.3,3.2-2.3,5.6v4.5c0,2.3.8,4.2,2.3,5.6,1.5,1.4,3.5,2.1,6,2.1Z"></path><path class="st2" d="M585.8,447.4c0,2.6.5,4.6,1.5,5.8,1,1.2,2.6,1.8,4.8,1.8s4.9-.9,6.4-2.8c1.5-1.8,2.3-4.5,2.3-7.9l1.8-3.3v3.2c0,4.5-1,8-2.9,10.4-1.9,2.4-4.7,3.7-8.4,3.7s-5.8-.9-7.4-2.6-2.4-4.4-2.4-8v-15.7h4.2v15.4ZM605.1,458h-2.9l-1.3-8.5v-17.4h4.2v25.9Z"></path><path class="st2" d="M613.2,432.1h2.9l1.3,9.6v16.4h-4.2v-25.9ZM616.1,443.8c0-4,.8-7,2.3-9,1.6-2,3.8-3.1,6.7-3.1s1,0,1.6,0c.5,0,1.1.2,1.6.3l-.2,3.6c-1-.3-2-.4-3.1-.4-2.5,0-4.4.8-5.6,2.4-1.3,1.6-1.9,4-1.9,7.2l-1.3-1.2Z"></path><path class="st2" d="M642.7,458.4c-2.5,0-4.6-.4-6.4-1.3-1.8-.9-3.2-2.2-4.2-3.8-1-1.7-1.4-3.6-1.4-5.9v-4.6c0-2.3.5-4.2,1.5-5.9,1-1.6,2.4-2.9,4.2-3.8,1.8-.9,3.9-1.3,6.4-1.3,3.5,0,6.4.8,8.5,2.5,2.2,1.6,3.4,3.9,3.7,6.7l-4.1.3c-.4-2-1.2-3.6-2.6-4.7-1.3-1.1-3.1-1.6-5.4-1.6s-4.4.7-5.8,2.1c-1.4,1.4-2.1,3.3-2.1,5.7v4.6c0,2.4.7,4.3,2.1,5.7,1.4,1.4,3.4,2,5.9,2s4.1-.5,5.4-1.6c1.3-1.1,2.2-2.6,2.6-4.6l4.1.3c-.3,2.8-1.5,5.1-3.7,6.7-2.2,1.7-5,2.5-8.5,2.5Z"></path><path class="st2" d="M672,458.4c-2.5,0-4.6-.4-6.4-1.3-1.7-.8-3.1-2.1-4-3.7-.9-1.6-1.4-3.6-1.4-6v-4.7c0-2.3.5-4.2,1.5-5.9,1-1.6,2.4-2.9,4.2-3.8,1.8-.9,4-1.3,6.5-1.3,3.8,0,6.8,1,8.9,3,2.1,2,3.1,4.9,3.1,8.7v2.9h-20.8v-2.7h17.4l-.7,1.1v-2.3c0-2.3-.7-4.2-2.1-5.5-1.4-1.3-3.3-2-5.8-2s-4.5.7-6,2c-1.4,1.3-2.1,3.2-2.1,5.7v5.1c0,2.4.7,4.2,2,5.5,1.4,1.3,3.3,1.9,5.7,1.9s4-.4,5.4-1.3c1.4-.9,2.2-2.2,2.5-3.8l4,.2c-.6,2.6-1.9,4.6-4,6-2.1,1.4-4.8,2.1-8,2.1Z"></path><path class="st2" d="M711.6,458h-4.2v-31.9l1.6,1.9-8.2,1.2-.3-3,9-2h2.1v33.7Z"></path></g><path class="st8" d="M1941.5,69.8c0,34.4,111.5,62.2,249,62.2s249-27.9,249-62.2v680.5c0,34.4-111.5,62.2-249,62.2s-249-27.9-249-62.2V69.8Z"></path><path class="st6" d="M1941.5,69.8c0-34.4,111.5-62.2,249-62.2s249,27.9,249,62.2-111.5,62.2-249,62.2-249-27.9-249-62.2Z"></path><path class="st3" d="M2439.5,69.8c0,34.4-111.5,62.2-249,62.2s-249-27.9-249-62.2,111.5-62.2,249-62.2,249,27.9,249,62.2v680.5c0,34.4-111.5,62.2-249,62.2s-249-27.9-249-62.2V69.8"></path><g class="st1"><path class="st2" d="M2060.3,424.4h12c3.4,0,5.9.8,7.6,2.4,1.7,1.6,2.5,4.1,2.5,7.3v1.9c0,3.1-.8,5.5-2.5,7.1-1.7,1.6-4.2,2.4-7.6,2.4h-8v-3.2h6.7c2.6,0,4.4-.5,5.7-1.6,1.2-1.1,1.8-2.7,1.8-4.9v-1.5c0-2.4-.6-4.1-1.8-5.2-1.2-1.1-3.1-1.6-5.7-1.6h-7.4l1-1.3v31.7h-4.2v-33.6ZM2072.8,444.5h4.2l5.9,13.5h-4.3l-5.9-13.5Z"></path><path class="st2" d="M2099.8,458.4c-2.5,0-4.6-.4-6.4-1.3s-3.1-2.1-4-3.7c-.9-1.6-1.4-3.6-1.4-6v-4.7c0-2.3.5-4.2,1.5-5.9,1-1.6,2.4-2.9,4.2-3.8,1.8-.9,4-1.3,6.5-1.3,3.8,0,6.8,1,8.9,3s3.1,4.9,3.1,8.7v2.9h-20.8v-2.7h17.4l-.7,1.1v-2.3c0-2.3-.7-4.2-2.1-5.5-1.4-1.3-3.3-2-5.8-2s-4.5.7-6,2c-1.4,1.3-2.1,3.2-2.1,5.7v5.1c0,2.4.7,4.2,2,5.5,1.4,1.3,3.3,1.9,5.7,1.9s4-.4,5.4-1.3c1.4-.9,2.2-2.2,2.5-3.8l4,.2c-.6,2.6-1.9,4.6-4,6-2.1,1.4-4.8,2.1-8,2.1Z"></path><path class="st2" d="M2128.6,458.3c-3.4,0-6-.6-7.8-1.9-1.8-1.3-2.9-3.3-3.3-6h4.3c.2,1.6.8,2.9,2,3.7,1.1.8,2.7,1.2,4.8,1.2s3.6-.3,4.7-1c1.1-.7,1.7-1.7,1.7-3s-.3-1.8-.9-2.4-1.4-1-2.4-1.3c-1-.3-2.1-.5-3.3-.7-1.2-.2-2.4-.5-3.6-.7-1.2-.3-2.3-.7-3.3-1.2s-1.8-1.3-2.4-2.2c-.6-.9-.9-2.2-.9-3.8,0-2.4.9-4.2,2.7-5.4,1.8-1.2,4.5-1.8,7.9-1.8s4,.3,5.4.8c1.5.6,2.7,1.4,3.6,2.5.9,1.1,1.4,2.5,1.7,4.1l-4.3.2c-.1-1.5-.7-2.6-1.8-3.4s-2.5-1.2-4.5-1.2-3.6.4-4.7,1.1c-1.1.7-1.7,1.7-1.7,3s.3,1.9.9,2.4,1.4,1,2.4,1.3c1,.3,2.1.6,3.3.8,1.2.2,2.4.5,3.6.7s2.3.7,3.3,1.2c1,.5,1.8,1.3,2.4,2.2.6.9.9,2.2.9,3.7,0,2.3-.9,4.1-2.7,5.3-1.8,1.2-4.5,1.8-8,1.8Z"></path><path class="st2" d="M2157.2,458.4c-2.6,0-4.8-.4-6.7-1.3-1.9-.9-3.3-2.2-4.3-3.8-1-1.7-1.5-3.6-1.5-5.9v-4.6c0-2.3.5-4.2,1.5-5.9s2.4-2.9,4.3-3.8c1.9-.9,4.1-1.3,6.6-1.3s4.8.4,6.7,1.3c1.9.9,3.3,2.2,4.3,3.8,1,1.7,1.5,3.6,1.5,5.9v4.6c0,2.3-.5,4.2-1.5,5.9-1,1.7-2.4,2.9-4.3,3.8-1.9.9-4.1,1.3-6.7,1.3ZM2157.2,454.9c2.6,0,4.6-.7,6.1-2,1.5-1.4,2.2-3.2,2.2-5.6v-4.5c0-2.4-.7-4.2-2.2-5.6s-3.5-2-6.1-2-4.5.7-6,2.1c-1.5,1.4-2.3,3.2-2.3,5.6v4.5c0,2.3.8,4.2,2.3,5.6,1.5,1.4,3.5,2.1,6,2.1Z"></path><path class="st2" d="M2180.6,447.4c0,2.6.5,4.6,1.5,5.8,1,1.2,2.6,1.8,4.8,1.8s4.9-.9,6.4-2.8c1.5-1.8,2.3-4.5,2.3-7.9l1.8-3.3v3.2c0,4.5-1,8-2.9,10.4s-4.7,3.7-8.4,3.7-5.8-.9-7.4-2.6-2.4-4.4-2.4-8v-15.7h4.2v15.4ZM2199.9,458h-2.9l-1.3-8.5v-17.4h4.2v25.9Z"></path><path class="st2" d="M2208,432.1h2.9l1.3,9.6v16.4h-4.2v-25.9ZM2210.9,443.8c0-4,.8-7,2.3-9,1.6-2,3.8-3.1,6.7-3.1s1,0,1.6,0c.5,0,1.1.2,1.6.3l-.2,3.6c-1-.3-2-.4-3.1-.4-2.5,0-4.4.8-5.6,2.4-1.3,1.6-1.9,4-1.9,7.2l-1.3-1.2Z"></path><path class="st2" d="M2237.5,458.4c-2.5,0-4.6-.4-6.4-1.3-1.8-.9-3.2-2.2-4.2-3.8-1-1.7-1.4-3.6-1.4-5.9v-4.6c0-2.3.5-4.2,1.5-5.9,1-1.6,2.4-2.9,4.2-3.8,1.8-.9,3.9-1.3,6.4-1.3,3.5,0,6.4.8,8.5,2.5,2.2,1.6,3.4,3.9,3.7,6.7l-4.1.3c-.4-2-1.2-3.6-2.6-4.7-1.3-1.1-3.1-1.6-5.4-1.6s-4.4.7-5.8,2.1-2.1,3.3-2.1,5.7v4.6c0,2.4.7,4.3,2.1,5.7,1.4,1.4,3.4,2,5.9,2s4.1-.5,5.4-1.6c1.3-1.1,2.2-2.6,2.6-4.6l4.1.3c-.3,2.8-1.5,5.1-3.7,6.7-2.2,1.7-5,2.5-8.5,2.5Z"></path><path class="st2" d="M2266.8,458.4c-2.5,0-4.6-.4-6.4-1.3s-3.1-2.1-4-3.7c-.9-1.6-1.4-3.6-1.4-6v-4.7c0-2.3.5-4.2,1.5-5.9,1-1.6,2.4-2.9,4.2-3.8,1.8-.9,4-1.3,6.5-1.3,3.8,0,6.8,1,8.9,3s3.1,4.9,3.1,8.7v2.9h-20.8v-2.7h17.4l-.7,1.1v-2.3c0-2.3-.7-4.2-2.1-5.5-1.4-1.3-3.3-2-5.8-2s-4.5.7-6,2c-1.4,1.3-2.1,3.2-2.1,5.7v5.1c0,2.4.7,4.2,2,5.5,1.4,1.3,3.3,1.9,5.7,1.9s4-.4,5.4-1.3c1.4-.9,2.2-2.2,2.5-3.8l4,.2c-.6,2.6-1.9,4.6-4,6-2.1,1.4-4.8,2.1-8,2.1Z"></path><path class="st2" d="M2296.3,455.6l14-12.8c1.4-1.3,2.5-2.4,3.4-3.3s1.5-1.7,2-2.4c.5-.7.8-1.3,1-1.9.2-.6.3-1.3.3-2v-.7c0-1.7-.7-3-2.1-3.9-1.4-.9-3.4-1.4-5.9-1.4s-4.1.6-5.6,1.8-2.4,2.9-2.9,5.1l-4-.4c.6-3.1,1.9-5.5,4.1-7.2,2.1-1.7,4.9-2.5,8.3-2.5s6.9.7,9,2.2c2.1,1.5,3.2,3.6,3.2,6.2v.7c0,1.3-.2,2.5-.6,3.5-.4,1.1-1,2.2-2,3.3-1,1.2-2.4,2.6-4.2,4.3l-13.9,12.9-1.2-2.5h22.1v3.4h-24.8v-2.4Z"></path></g><path class="st7" d="M425.5,945c0-24,19.2-43.5,43-43.5s43,19.5,43,43.5-19.2,43.5-43,43.5-43-19.5-43-43.5Z"></path><g class="st1"><path class="st2" d="M472.1,958h-5.8v-22.8l1.8,1.9-6.3.9-.5-4,8.1-2h2.7v26Z"></path></g><path class="st7" d="M668.5,945c0-24,19.2-43.5,43-43.5s43,19.5,43,43.5-19.2,43.5-43,43.5-43-19.5-43-43.5Z"></path><g class="st1"><path class="st2" d="M699.6,941.6c0-2.1.5-3.9,1.4-5.3.9-1.5,2.2-2.6,4-3.4,1.7-.8,3.8-1.2,6.1-1.2s5.7.7,7.5,2,2.9,3.2,3.4,5.7l-5.6.6c-.3-1.4-.9-2.4-1.7-3.2-.8-.8-2-1.1-3.6-1.1s-3.1.5-4.1,1.4c-1,.9-1.5,2.4-1.5,4.3v8h-5.8v-7.7ZM711.1,958.4c-2.4,0-4.4-.4-6.1-1.1-1.7-.7-3-1.7-4-3.1-.9-1.3-1.4-3-1.4-4.9l3-.2c0-2.3.8-4,2.5-5.3,1.7-1.2,4-1.9,6.9-1.9s4.1.3,5.6.9,2.7,1.5,3.6,2.7c.8,1.2,1.2,2.7,1.2,4.3v.4c0,1.7-.4,3.2-1.3,4.3-.9,1.2-2.2,2.1-3.9,2.7-1.7.6-3.8.9-6.2.9ZM711.1,954.5c2,0,3.4-.4,4.3-1.1s1.3-1.8,1.3-3.2v-.4c0-1.5-.5-2.6-1.4-3.3-.9-.7-2.3-1.1-4.2-1.1s-3.2.3-4.2,1c-1,.6-1.4,1.6-1.4,3v.4c0,1.6.5,2.8,1.4,3.6s2.3,1.2,4.2,1.2Z"></path></g><g class="st1"><path class="st0" d="M828.6,935.1h9.2c2.6,0,4.5.6,5.8,1.9,1.3,1.2,2,3.1,2,5.6v1.5c0,2.4-.7,4.2-2,5.5-1.3,1.2-3.3,1.8-5.8,1.8h-6.2v-2.5h5.1c2,0,3.4-.4,4.4-1.2.9-.8,1.4-2.1,1.4-3.8v-1.2c0-1.8-.5-3.2-1.4-4-.9-.8-2.4-1.2-4.4-1.2h-5.7l.7-1v24.5h-3.2v-25.9ZM838.2,950.6h3.3l4.6,10.4h-3.3l-4.5-10.4Z"></path><path class="st0" d="M859,961.3c-1.9,0-3.6-.3-4.9-1-1.3-.7-2.4-1.6-3.1-2.9-.7-1.3-1.1-2.8-1.1-4.6v-3.6c0-1.8.4-3.3,1.1-4.5.8-1.3,1.8-2.2,3.2-2.9,1.4-.7,3.1-1,5-1,3,0,5.2.8,6.8,2.3,1.6,1.6,2.4,3.8,2.4,6.7v2.3h-16v-2.1h13.4l-.5.9v-1.7c0-1.8-.5-3.2-1.6-4.2-1.1-1-2.6-1.5-4.4-1.5s-3.5.5-4.6,1.6c-1.1,1-1.6,2.5-1.6,4.4v3.9c0,1.8.5,3.3,1.6,4.3,1,1,2.5,1.5,4.4,1.5s3.1-.3,4.1-1c1-.7,1.7-1.7,1.9-2.9l3.1.2c-.4,2-1.5,3.5-3.1,4.6-1.6,1.1-3.7,1.6-6.2,1.6Z"></path><path class="st0" d="M882.5,961.3c-1.9,0-3.5-.3-4.9-1-1.4-.7-2.5-1.7-3.2-2.9-.7-1.3-1.1-2.8-1.1-4.6v-3.6c0-1.8.4-3.3,1.1-4.5.8-1.3,1.8-2.2,3.2-2.9,1.4-.7,3-1,4.9-1,2.7,0,4.9.6,6.6,1.9,1.7,1.3,2.6,3,2.8,5.2l-3.1.3c-.3-1.6-1-2.8-2-3.6-1-.8-2.4-1.2-4.2-1.2s-3.4.5-4.5,1.6c-1.1,1.1-1.6,2.5-1.6,4.4v3.6c0,1.9.5,3.3,1.6,4.4,1.1,1,2.6,1.6,4.5,1.6s3.1-.4,4.2-1.2c1-.8,1.7-2,2-3.6l3.1.3c-.2,2.2-1.2,3.9-2.8,5.2-1.7,1.3-3.9,1.9-6.6,1.9Z"></path><path class="st0" d="M905.1,961.3c-1.9,0-3.6-.3-4.9-1-1.3-.7-2.4-1.6-3.1-2.9-.7-1.3-1.1-2.8-1.1-4.6v-3.6c0-1.8.4-3.3,1.1-4.5.8-1.3,1.8-2.2,3.2-2.9,1.4-.7,3.1-1,5-1,3,0,5.2.8,6.8,2.3,1.6,1.6,2.4,3.8,2.4,6.7v2.3h-16v-2.1h13.4l-.5.9v-1.7c0-1.8-.5-3.2-1.6-4.2-1.1-1-2.6-1.5-4.4-1.5s-3.5.5-4.6,1.6c-1.1,1-1.6,2.5-1.6,4.4v3.9c0,1.8.5,3.3,1.6,4.3,1,1,2.5,1.5,4.4,1.5s3.1-.3,4.1-1c1-.7,1.7-1.7,1.9-2.9l3.1.2c-.4,2-1.5,3.5-3.1,4.6-1.6,1.1-3.7,1.6-6.2,1.6Z"></path><path class="st0" d="M923.3,933.9v4.5h-3.6v-4.5h3.6ZM923.2,941v20h-3.2v-20h3.2Z"></path><path class="st0" d="M926.8,941h3.2l6.3,18.2h0l6.3-18.2h3.1l-6.6,20h-5.7l-6.7-20Z"></path><path class="st0" d="M957.4,961.3c-1.9,0-3.6-.3-4.9-1-1.3-.7-2.4-1.6-3.1-2.9-.7-1.3-1.1-2.8-1.1-4.6v-3.6c0-1.8.4-3.3,1.1-4.5.8-1.3,1.8-2.2,3.2-2.9,1.4-.7,3.1-1,5-1,3,0,5.2.8,6.8,2.3,1.6,1.6,2.4,3.8,2.4,6.7v2.3h-16v-2.1h13.4l-.5.9v-1.7c0-1.8-.5-3.2-1.6-4.2-1.1-1-2.6-1.5-4.4-1.5s-3.5.5-4.6,1.6c-1.1,1-1.6,2.5-1.6,4.4v3.9c0,1.8.5,3.3,1.6,4.3,1,1,2.5,1.5,4.4,1.5s3.1-.3,4.1-1c1-.7,1.7-1.7,1.9-2.9l3.1.2c-.4,2-1.5,3.5-3.1,4.6-1.6,1.1-3.7,1.6-6.2,1.6Z"></path><path class="st0" d="M979.6,961.3c-2.6,0-4.7-.5-6-1.5-1.4-1-2.2-2.5-2.5-4.6h3.3c.1,1.2.7,2.2,1.5,2.8.9.6,2.1.9,3.7.9s2.8-.3,3.6-.8,1.3-1.3,1.3-2.3-.2-1.4-.7-1.9c-.5-.4-1.1-.8-1.9-1-.8-.2-1.6-.4-2.6-.6-.9-.2-1.9-.4-2.8-.6-.9-.2-1.8-.5-2.6-.9-.8-.4-1.4-1-1.9-1.7-.5-.7-.7-1.7-.7-2.9,0-1.8.7-3.2,2.1-4.2,1.4-.9,3.4-1.4,6.1-1.4s3.1.2,4.2.6c1.1.4,2.1,1.1,2.7,1.9.7.9,1.1,1.9,1.3,3.2h-3.3c0-1-.6-1.9-1.4-2.5s-2-.9-3.4-.9-2.8.3-3.6.8c-.9.6-1.3,1.3-1.3,2.3s.2,1.4.7,1.9,1.1.8,1.9,1c.8.2,1.6.4,2.6.6.9.2,1.9.4,2.8.6.9.2,1.8.5,2.6.9.8.4,1.4,1,1.9,1.7.5.7.7,1.7.7,2.9,0,1.8-.7,3.1-2.1,4.1-1.4.9-3.4,1.4-6.2,1.4Z"></path><path class="st0" d="M999.6,941h12v2.4h-12v-2.4ZM1008.5,961.3c-1.9,0-3.2-.5-4-1.4-.8-.9-1.3-2.3-1.3-4.3v-14.4l.9-5.1h2.3v19.1c0,1.3.2,2.1.6,2.6.4.5,1.2.7,2.3.7s.7,0,1.1,0c.4,0,.8-.1,1.1-.3l.5,2.4c-.4,0-.8.2-1.2.3-.4,0-.8.2-1.3.2s-.8,0-1.2,0Z"></path><path class="st0" d="M1015.9,941h2.2l1,7.4v12.6h-3.2v-20ZM1018.1,950c0-3.1.6-5.4,1.8-7,1.2-1.6,2.9-2.4,5.2-2.4s.8,0,1.2,0c.4,0,.8.1,1.2.2l-.2,2.8c-.7-.2-1.5-.3-2.4-.3-1.9,0-3.4.6-4.3,1.8-1,1.2-1.5,3.1-1.5,5.6l-1-.9Z"></path><path class="st0" d="M1035.9,961.3c-2.1,0-3.8-.5-5-1.5-1.2-1-1.8-2.4-1.8-4.1v-1c0-1.8.6-3.2,1.8-4.2,1.2-1,3-1.5,5.2-1.5s4.2.5,5.6,1.4c1.4,1,2.1,2.3,2.1,4.1v1.1c0,1.8-.7,3.2-2.1,4.2-1.4,1-3.3,1.5-5.8,1.5ZM1042.3,954.4v-6.5c0-1.6-.4-2.7-1.3-3.4-.9-.7-2.2-1.1-4.1-1.1s-2.4.2-3.6.5c-1.2.3-2.3.8-3.3,1.4l-.5-2.4c.7-.4,1.5-.7,2.4-1.1.9-.3,1.8-.6,2.8-.7,1-.2,1.9-.3,2.8-.3,2.7,0,4.7.6,6,1.8s2,3,2,5.3v13.2h-2.2l-1-6.6ZM1036.8,959.2c1.7,0,3.1-.4,4.1-1.1s1.5-1.7,1.5-2.9v-.6c0-1.1-.5-2-1.4-2.7-.9-.6-2.3-1-4-1s-2.8.3-3.6.9c-.8.6-1.3,1.6-1.3,2.9v.5c0,1.3.4,2.2,1.2,2.9.8.7,2,1,3.4,1Z"></path><path class="st0" d="M1051.5,941h2.2l1,6.6v13.4h-3.2v-20ZM1066.3,949.2c0-2-.4-3.5-1.3-4.5-.8-.9-2.1-1.4-3.9-1.4s-3.7.7-4.8,2.1c-1.1,1.4-1.7,3.4-1.7,6.1l-1.4,2.6v-2.4c0-3.5.8-6.2,2.3-8.1,1.6-1.9,3.8-2.8,6.7-2.8s4.3.7,5.4,2c1.2,1.3,1.8,3.4,1.8,6.2v12h-3.2v-11.8Z"></path><path class="st0" d="M1082.7,961.3c-2.6,0-4.7-.5-6-1.5-1.4-1-2.2-2.5-2.5-4.6h3.3c.1,1.2.7,2.2,1.5,2.8.9.6,2.1.9,3.7.9s2.8-.3,3.6-.8,1.3-1.3,1.3-2.3-.2-1.4-.7-1.9c-.5-.4-1.1-.8-1.9-1-.8-.2-1.6-.4-2.6-.6-.9-.2-1.9-.4-2.8-.6-.9-.2-1.8-.5-2.6-.9-.8-.4-1.4-1-1.9-1.7-.5-.7-.7-1.7-.7-2.9,0-1.8.7-3.2,2.1-4.2,1.4-.9,3.4-1.4,6.1-1.4s3.1.2,4.2.6c1.1.4,2.1,1.1,2.7,1.9.7.9,1.1,1.9,1.3,3.2h-3.3c0-1-.6-1.9-1.4-2.5s-2-.9-3.4-.9-2.8.3-3.6.8c-.9.6-1.3,1.3-1.3,2.3s.2,1.4.7,1.9,1.1.8,1.9,1c.8.2,1.6.4,2.6.6.9.2,1.9.4,2.8.6.9.2,1.8.5,2.6.9.8.4,1.4,1,1.9,1.7.5.7.7,1.7.7,2.9,0,1.8-.7,3.1-2.1,4.1-1.4.9-3.4,1.4-6.2,1.4Z"></path><path class="st0" d="M1101.9,961.3c-2.1,0-3.8-.5-5-1.5-1.2-1-1.8-2.4-1.8-4.1v-1c0-1.8.6-3.2,1.8-4.2,1.2-1,3-1.5,5.2-1.5s4.2.5,5.6,1.4c1.4,1,2.1,2.3,2.1,4.1v1.1c0,1.8-.7,3.2-2.1,4.2-1.4,1-3.3,1.5-5.8,1.5ZM1108.3,954.4v-6.5c0-1.6-.4-2.7-1.3-3.4-.9-.7-2.2-1.1-4.1-1.1s-2.4.2-3.6.5c-1.2.3-2.3.8-3.3,1.4l-.5-2.4c.7-.4,1.5-.7,2.4-1.1.9-.3,1.8-.6,2.8-.7,1-.2,1.9-.3,2.8-.3,2.7,0,4.7.6,6,1.8s2,3,2,5.3v13.2h-2.2l-1-6.6ZM1102.8,959.2c1.7,0,3.1-.4,4.1-1.1s1.5-1.7,1.5-2.9v-.6c0-1.1-.5-2-1.4-2.7-.9-.6-2.3-1-4-1s-2.8.3-3.6.9c-.8.6-1.3,1.6-1.3,2.9v.5c0,1.3.4,2.2,1.2,2.9.8.7,2,1,3.4,1Z"></path><path class="st0" d="M1126.1,961.3c-1.9,0-3.5-.3-4.9-1-1.4-.7-2.5-1.7-3.2-2.9-.7-1.3-1.1-2.8-1.1-4.6v-3.6c0-1.8.4-3.3,1.1-4.5.8-1.3,1.8-2.2,3.2-2.9,1.4-.7,3-1,4.9-1,2.7,0,4.9.6,6.6,1.9,1.7,1.3,2.6,3,2.8,5.2l-3.1.3c-.3-1.6-1-2.8-2-3.6-1-.8-2.4-1.2-4.2-1.2s-3.4.5-4.5,1.6c-1.1,1.1-1.6,2.5-1.6,4.4v3.6c0,1.9.5,3.3,1.6,4.4,1.1,1,2.6,1.6,4.5,1.6s3.1-.4,4.2-1.2c1-.8,1.7-2,2-3.6l3.1.3c-.2,2.2-1.2,3.9-2.8,5.2-1.7,1.3-3.9,1.9-6.6,1.9Z"></path><path class="st0" d="M1137.7,941h12v2.4h-12v-2.4ZM1146.6,961.3c-1.9,0-3.2-.5-4-1.4-.8-.9-1.3-2.3-1.3-4.3v-14.4l.9-5.1h2.3v19.1c0,1.3.2,2.1.6,2.6.4.5,1.2.7,2.3.7s.7,0,1.1,0c.4,0,.8-.1,1.1-.3l.5,2.4c-.4,0-.8.2-1.2.3-.4,0-.8.2-1.3.2s-.8,0-1.2,0Z"></path><path class="st0" d="M1157.5,933.9v4.5h-3.6v-4.5h3.6ZM1157.4,941v20h-3.2v-20h3.2Z"></path><path class="st0" d="M1172.5,961.3c-2,0-3.7-.3-5.2-1-1.4-.7-2.5-1.7-3.3-2.9-.8-1.3-1.1-2.8-1.1-4.6v-3.6c0-1.8.4-3.3,1.2-4.5.8-1.3,1.9-2.2,3.3-2.9,1.4-.7,3.2-1,5.1-1s3.7.3,5.1,1c1.4.7,2.5,1.7,3.3,2.9.8,1.3,1.2,2.8,1.2,4.6v3.6c0,1.8-.4,3.3-1.2,4.6-.8,1.3-1.9,2.3-3.3,2.9-1.4.7-3.1,1-5.1,1ZM1172.5,958.6c2,0,3.5-.5,4.7-1.6,1.1-1,1.7-2.5,1.7-4.3v-3.5c0-1.8-.6-3.3-1.7-4.3-1.1-1-2.7-1.6-4.7-1.6s-3.5.5-4.7,1.6c-1.2,1.1-1.7,2.5-1.7,4.3v3.5c0,1.8.6,3.2,1.7,4.3,1.2,1.1,2.7,1.6,4.7,1.6Z"></path><path class="st0" d="M1187.7,941h2.2l1,6.6v13.4h-3.2v-20ZM1202.5,949.2c0-2-.4-3.5-1.3-4.5-.8-.9-2.1-1.4-3.9-1.4s-3.7.7-4.8,2.1c-1.1,1.4-1.7,3.4-1.7,6.1l-1.4,2.6v-2.4c0-3.5.8-6.2,2.3-8.1,1.6-1.9,3.8-2.8,6.7-2.8s4.3.7,5.4,2c1.2,1.3,1.8,3.4,1.8,6.2v12h-3.2v-11.8Z"></path><path class="st0" d="M1226.9,961.3c-2.1,0-3.8-.5-5-1.5s-1.8-2.4-1.8-4.1v-1c0-1.8.6-3.2,1.8-4.2s3-1.5,5.2-1.5,4.2.5,5.6,1.4c1.4,1,2.1,2.3,2.1,4.1v1.1c0,1.8-.7,3.2-2.1,4.2s-3.3,1.5-5.8,1.5ZM1233.4,954.4v-6.5c0-1.6-.4-2.7-1.3-3.4-.9-.7-2.2-1.1-4.1-1.1s-2.4.2-3.6.5c-1.2.3-2.3.8-3.3,1.4l-.5-2.4c.7-.4,1.5-.7,2.4-1.1.9-.3,1.8-.6,2.8-.7,1-.2,1.9-.3,2.8-.3,2.7,0,4.7.6,6,1.8,1.3,1.2,2,3,2,5.3v13.2h-2.2l-1-6.6ZM1227.8,959.2c1.7,0,3.1-.4,4.1-1.1s1.5-1.7,1.5-2.9v-.6c0-1.1-.5-2-1.4-2.7-.9-.6-2.3-1-4-1s-2.8.3-3.6.9c-.8.6-1.3,1.6-1.3,2.9v.5c0,1.3.4,2.2,1.2,2.9.8.7,2,1,3.4,1Z"></path><path class="st0" d="M1251.1,961.3c-1.9,0-3.5-.3-4.9-1-1.4-.7-2.5-1.7-3.2-2.9-.7-1.3-1.1-2.8-1.1-4.6v-3.6c0-1.8.4-3.3,1.1-4.5.8-1.3,1.8-2.2,3.2-2.9,1.4-.7,3-1,4.9-1,2.7,0,4.9.6,6.6,1.9,1.7,1.3,2.6,3,2.8,5.2l-3.1.3c-.3-1.6-1-2.8-2-3.6-1-.8-2.4-1.2-4.2-1.2s-3.4.5-4.5,1.6-1.6,2.5-1.6,4.4v3.6c0,1.9.5,3.3,1.6,4.4,1.1,1,2.6,1.6,4.5,1.6s3.1-.4,4.2-1.2,1.7-2,2-3.6l3.1.3c-.2,2.2-1.2,3.9-2.8,5.2-1.7,1.3-3.9,1.9-6.6,1.9Z"></path><path class="st0" d="M1265.2,933.6h3.2v27.4h-3.2v-27.4ZM1265.9,954.6l11.2-13.6h3.8l-13.5,16.3-1.5-2.7ZM1271,950.6l2.3-1.7,7.7,12.1h-3.4l-6.6-10.4Z"></path><path class="st0" d="M1284.5,941h2.2l1,6.6v13.4h-3.2v-20ZM1299.3,949.2c0-2-.4-3.5-1.3-4.5-.8-.9-2.1-1.4-3.9-1.4s-3.7.7-4.8,2.1c-1.1,1.4-1.7,3.4-1.7,6.1l-1.4,2.6v-2.4c0-3.5.8-6.2,2.3-8.1,1.6-1.9,3.8-2.8,6.7-2.8s4.3.7,5.4,2c1.2,1.3,1.8,3.4,1.8,6.2v12h-3.2v-11.8Z"></path><path class="st0" d="M1317.4,961.3c-2,0-3.7-.3-5.2-1-1.4-.7-2.5-1.7-3.3-2.9-.8-1.3-1.1-2.8-1.1-4.6v-3.6c0-1.8.4-3.3,1.2-4.5.8-1.3,1.9-2.2,3.3-2.9,1.4-.7,3.2-1,5.1-1s3.7.3,5.1,1c1.4.7,2.5,1.7,3.3,2.9.8,1.3,1.2,2.8,1.2,4.6v3.6c0,1.8-.4,3.3-1.2,4.6-.8,1.3-1.9,2.3-3.3,2.9-1.4.7-3.1,1-5.1,1ZM1317.4,958.6c2,0,3.5-.5,4.7-1.6,1.1-1,1.7-2.5,1.7-4.3v-3.5c0-1.8-.6-3.3-1.7-4.3-1.1-1-2.7-1.6-4.7-1.6s-3.5.5-4.7,1.6c-1.2,1.1-1.7,2.5-1.7,4.3v3.5c0,1.8.6,3.2,1.7,4.3,1.2,1.1,2.7,1.6,4.7,1.6Z"></path><path class="st0" d="M1330.1,941h3.1l4.9,17.9h.1l5.1-17.9h4.3l5.2,17.9h.1l4.9-17.9h3.2l-5.3,20h-5.4l-4.8-16.4h-.1l-4.8,16.4h-5.4l-5.2-20Z"></path><path class="st0" d="M1368.5,933.6v27.4h-3.2v-27.4h3.2Z"></path><path class="st0" d="M1383.1,961.3c-1.9,0-3.6-.3-4.9-1-1.3-.7-2.4-1.6-3.1-2.9-.7-1.3-1.1-2.8-1.1-4.6v-3.6c0-1.8.4-3.3,1.1-4.5.8-1.3,1.8-2.2,3.2-2.9,1.4-.7,3.1-1,5-1,3,0,5.2.8,6.8,2.3,1.6,1.6,2.4,3.8,2.4,6.7v2.3h-16v-2.1h13.4l-.5.9v-1.7c0-1.8-.5-3.2-1.6-4.2-1.1-1-2.6-1.5-4.4-1.5s-3.5.5-4.6,1.6c-1.1,1-1.6,2.5-1.6,4.4v3.9c0,1.8.5,3.3,1.6,4.3,1,1,2.5,1.5,4.4,1.5s3.1-.3,4.1-1,1.7-1.7,1.9-2.9l3.1.2c-.4,2-1.5,3.5-3.1,4.6-1.6,1.1-3.7,1.6-6.2,1.6Z"></path><path class="st0" d="M1405.6,961.3c-2.6,0-4.6-.7-6.1-2.2-1.4-1.5-2.1-3.6-2.1-6.3v-3.6c0-2.7.7-4.8,2.1-6.3,1.4-1.5,3.5-2.2,6.1-2.2s3.5.4,4.8,1.1c1.4.8,2.5,1.8,3.2,3.2.8,1.4,1.1,3,1.1,4.9v1.9c0,1.9-.4,3.6-1.1,5-.8,1.4-1.8,2.5-3.2,3.3-1.4.8-3,1.2-4.9,1.2ZM1406.1,958.9c2.3,0,4-.7,5.3-2,1.3-1.3,1.9-3.1,1.9-5.4v-1.1c0-2.2-.6-4-1.9-5.3-1.3-1.3-3.1-1.9-5.3-1.9s-3.1.6-4,1.7c-1,1.1-1.4,2.7-1.4,4.7v3c0,2,.5,3.6,1.5,4.7,1,1.1,2.3,1.7,4,1.7ZM1413.4,954.7v-21.1h3.2v27.4h-2l-1.3-6.3Z"></path><path class="st0" d="M1427.4,967.9c-1.9,0-3.4-.4-4.5-1.2-1-.8-1.5-1.9-1.5-3.4s.5-2.7,1.5-3.4,2.5-1.2,4.5-1.2h6.2c1.9,0,3.4.4,4.5,1.2,1,.8,1.6,1.9,1.6,3.5s-.5,2.7-1.6,3.4c-1,.8-2.5,1.2-4.5,1.2h-6.2ZM1430.5,955.1c-2.6,0-4.6-.6-6.1-1.7-1.5-1.1-2.2-2.7-2.2-4.8v-1.3c0-2.1.7-3.7,2.2-4.8,1.5-1.1,3.5-1.7,6.1-1.7s4.6.6,6.1,1.7c1.4,1.1,2.2,2.8,2.2,4.8v1.3c0,2-.7,3.6-2.2,4.8-1.4,1.1-3.5,1.7-6.1,1.7ZM1426.3,959.5c-1,0-1.8-.2-2.4-.7-.6-.5-.9-1.1-.9-1.9s.3-1.5.9-2c.6-.5,1.4-.7,2.4-.7h4.1v.9h-2.5c-.7,0-1.2.2-1.6.5s-.5.7-.5,1.3c0,.6.2,1,.5,1.3.3.3.9.5,1.6.5h2.5v.9h-4.2ZM1433.2,965.7c2.2,0,3.3-.8,3.3-2.5s-1.1-2.5-3.3-2.5h-5.3c-2.2,0-3.4.8-3.4,2.5s1.1,2.5,3.4,2.5h5.3ZM1430.5,952.7c1.6,0,2.9-.4,3.8-1.1.9-.7,1.3-1.8,1.3-3.1v-1.1c0-1.4-.4-2.4-1.3-3.2-.9-.8-2.1-1.1-3.8-1.1s-2.8.4-3.7,1.1c-.9.8-1.3,1.8-1.3,3.2v1.1c0,1.3.4,2.4,1.3,3.1.9.8,2.1,1.1,3.7,1.1ZM1434.7,941.9l5.2-1.7h.9v2.8l-6,.4v-1.6Z"></path><path class="st0" d="M1452.8,961.3c-1.9,0-3.6-.3-4.9-1-1.3-.7-2.4-1.6-3.1-2.9-.7-1.3-1.1-2.8-1.1-4.6v-3.6c0-1.8.4-3.3,1.1-4.5.8-1.3,1.8-2.2,3.2-2.9,1.4-.7,3.1-1,5-1,3,0,5.2.8,6.8,2.3,1.6,1.6,2.4,3.8,2.4,6.7v2.3h-16v-2.1h13.4l-.5.9v-1.7c0-1.8-.5-3.2-1.6-4.2-1.1-1-2.6-1.5-4.4-1.5s-3.5.5-4.6,1.6c-1.1,1-1.6,2.5-1.6,4.4v3.9c0,1.8.5,3.3,1.6,4.3,1,1,2.5,1.5,4.4,1.5s3.1-.3,4.1-1,1.7-1.7,1.9-2.9l3.1.2c-.4,2-1.5,3.5-3.1,4.6-1.6,1.1-3.7,1.6-6.2,1.6Z"></path><path class="st0" d="M1467.5,941h2.2l1,6.9v13.1h-3.2v-20ZM1482.1,949.2c0-2-.4-3.5-1.3-4.5-.8-.9-2.1-1.4-3.8-1.4s-3.6.7-4.7,2.1c-1.1,1.4-1.6,3.4-1.6,6.1l-1.4,2.6v-2.4c0-3.5.8-6.2,2.3-8.1,1.5-1.9,3.7-2.8,6.6-2.8s4.2.7,5.4,2c1.2,1.3,1.7,3.4,1.7,6.2v12.1h-3.2v-11.8ZM1496.7,949.2c0-2-.4-3.5-1.2-4.5-.8-.9-2.1-1.4-3.8-1.4s-3.6.7-4.7,2.1c-1.1,1.4-1.6,3.4-1.6,6.1l-1.5,2.6v-2.4c0-3.5.8-6.2,2.3-8.1,1.6-1.9,3.8-2.8,6.7-2.8s4.2.7,5.4,2c1.2,1.3,1.7,3.4,1.7,6.2v12.1h-3.3v-11.8Z"></path><path class="st0" d="M1514.2,961.3c-1.9,0-3.6-.3-4.9-1-1.3-.7-2.4-1.6-3.1-2.9-.7-1.3-1.1-2.8-1.1-4.6v-3.6c0-1.8.4-3.3,1.1-4.5.8-1.3,1.8-2.2,3.2-2.9,1.4-.7,3.1-1,5-1,3,0,5.2.8,6.8,2.3,1.6,1.6,2.4,3.8,2.4,6.7v2.3h-16v-2.1h13.4l-.5.9v-1.7c0-1.8-.5-3.2-1.6-4.2-1.1-1-2.6-1.5-4.4-1.5s-3.5.5-4.6,1.6c-1.1,1-1.6,2.5-1.6,4.4v3.9c0,1.8.5,3.3,1.6,4.3,1,1,2.5,1.5,4.4,1.5s3.1-.3,4.1-1,1.7-1.7,1.9-2.9l3.1.2c-.4,2-1.5,3.5-3.1,4.6-1.6,1.1-3.7,1.6-6.2,1.6Z"></path><path class="st0" d="M1528.8,941h2.2l1,6.6v13.4h-3.2v-20ZM1543.7,949.2c0-2-.4-3.5-1.3-4.5-.8-.9-2.1-1.4-3.9-1.4s-3.7.7-4.8,2.1c-1.1,1.4-1.7,3.4-1.7,6.1l-1.4,2.6v-2.4c0-3.5.8-6.2,2.3-8.1,1.6-1.9,3.8-2.8,6.7-2.8s4.3.7,5.4,2c1.2,1.3,1.8,3.4,1.8,6.2v12h-3.2v-11.8Z"></path><path class="st0" d="M1550.3,941h12v2.4h-12v-2.4ZM1559.3,961.3c-1.9,0-3.2-.5-4-1.4-.8-.9-1.3-2.3-1.3-4.3v-14.4l.9-5.1h2.3v19.1c0,1.3.2,2.1.6,2.6.4.5,1.2.7,2.3.7s.7,0,1.1,0c.4,0,.8-.1,1.1-.3l.5,2.4c-.4,0-.8.2-1.2.3-.4,0-.8.2-1.3.2s-.8,0-1.2,0Z"></path></g><g class="st1"><path class="st0" d="M43.5,928.1v25.9h-3.2v-25.9h3.2Z"></path><path class="st0" d="M56.8,954.3c-2.6,0-4.7-.5-6-1.5-1.4-1-2.2-2.5-2.5-4.6h3.3c.1,1.2.7,2.2,1.5,2.8.9.6,2.1.9,3.7.9s2.8-.3,3.6-.8,1.3-1.3,1.3-2.3-.2-1.4-.7-1.9c-.5-.4-1.1-.8-1.9-1-.8-.2-1.6-.4-2.6-.6-.9-.2-1.9-.4-2.8-.6-.9-.2-1.8-.5-2.6-.9-.8-.4-1.4-1-1.9-1.7-.5-.7-.7-1.7-.7-2.9,0-1.8.7-3.2,2.1-4.2,1.4-.9,3.4-1.4,6.1-1.4s3.1.2,4.2.6c1.1.4,2.1,1.1,2.7,1.9.7.9,1.1,1.9,1.3,3.2h-3.3c0-1-.6-1.9-1.4-2.5s-2-.9-3.4-.9-2.8.3-3.6.8c-.9.6-1.3,1.3-1.3,2.3s.2,1.4.7,1.9,1.1.8,1.9,1c.8.2,1.6.4,2.6.6.9.2,1.9.4,2.8.6.9.2,1.8.5,2.6.9.8.4,1.4,1,1.9,1.7.5.7.7,1.7.7,2.9,0,1.8-.7,3.1-2.1,4.1-1.4.9-3.4,1.4-6.2,1.4Z"></path><path class="st0" d="M77.3,954.3c-2.6,0-4.7-.5-6-1.5-1.4-1-2.2-2.5-2.5-4.6h3.3c.1,1.2.7,2.2,1.5,2.8.9.6,2.1.9,3.7.9s2.8-.3,3.6-.8,1.3-1.3,1.3-2.3-.2-1.4-.7-1.9c-.5-.4-1.1-.8-1.9-1-.8-.2-1.6-.4-2.6-.6-.9-.2-1.9-.4-2.8-.6-.9-.2-1.8-.5-2.6-.9-.8-.4-1.4-1-1.9-1.7-.5-.7-.7-1.7-.7-2.9,0-1.8.7-3.2,2.1-4.2,1.4-.9,3.4-1.4,6.1-1.4s3.1.2,4.2.6c1.1.4,2.1,1.1,2.7,1.9.7.9,1.1,1.9,1.3,3.2h-3.3c0-1-.6-1.9-1.4-2.5s-2-.9-3.4-.9-2.8.3-3.6.8c-.9.6-1.3,1.3-1.3,2.3s.2,1.4.7,1.9,1.1.8,1.9,1c.8.2,1.6.4,2.6.6.9.2,1.9.4,2.8.6.9.2,1.8.5,2.6.9.8.4,1.4,1,1.9,1.7.5.7.7,1.7.7,2.9,0,1.8-.7,3.1-2.1,4.1-1.4.9-3.4,1.4-6.2,1.4Z"></path><path class="st0" d="M93.5,945.9c0,2,.4,3.5,1.2,4.5.8,1,2,1.4,3.7,1.4s3.8-.7,5-2.1c1.2-1.4,1.7-3.4,1.7-6.1l1.4-2.6v2.4c0,3.5-.7,6.2-2.2,8-1.5,1.9-3.6,2.8-6.5,2.8s-4.5-.7-5.7-2c-1.2-1.3-1.8-3.4-1.8-6.2v-12.1h3.2v11.8ZM108.4,954h-2.3l-1-6.6v-13.4h3.3v20Z"></path><path class="st0" d="M123,954.3c-1.9,0-3.6-.3-4.9-1-1.3-.7-2.4-1.6-3.1-2.9-.7-1.3-1.1-2.8-1.1-4.6v-3.6c0-1.8.4-3.3,1.1-4.5.8-1.3,1.8-2.2,3.2-2.9,1.4-.7,3.1-1,5-1,3,0,5.2.8,6.8,2.3,1.6,1.6,2.4,3.8,2.4,6.7v2.3h-16v-2.1h13.4l-.5.9v-1.7c0-1.8-.5-3.2-1.6-4.2-1.1-1-2.6-1.5-4.4-1.5s-3.5.5-4.6,1.6c-1.1,1-1.6,2.5-1.6,4.4v3.9c0,1.8.5,3.3,1.6,4.3,1,1,2.5,1.5,4.4,1.5s3.1-.3,4.1-1c1-.7,1.7-1.7,1.9-2.9l3.1.2c-.4,2-1.5,3.5-3.1,4.6-1.6,1.1-3.7,1.6-6.2,1.6Z"></path><path class="st0" d="M145.1,954.3c-2.6,0-4.7-.5-6-1.5-1.4-1-2.2-2.5-2.5-4.6h3.3c.1,1.2.7,2.2,1.5,2.8.9.6,2.1.9,3.7.9s2.8-.3,3.6-.8,1.3-1.3,1.3-2.3-.2-1.4-.7-1.9c-.5-.4-1.1-.8-1.9-1-.8-.2-1.6-.4-2.6-.6-.9-.2-1.9-.4-2.8-.6-.9-.2-1.8-.5-2.6-.9-.8-.4-1.4-1-1.9-1.7-.5-.7-.7-1.7-.7-2.9,0-1.8.7-3.2,2.1-4.2,1.4-.9,3.4-1.4,6.1-1.4s3.1.2,4.2.6c1.1.4,2.1,1.1,2.7,1.9.7.9,1.1,1.9,1.3,3.2h-3.3c0-1-.6-1.9-1.4-2.5s-2-.9-3.4-.9-2.8.3-3.6.8c-.9.6-1.3,1.3-1.3,2.3s.2,1.4.7,1.9,1.1.8,1.9,1c.8.2,1.6.4,2.6.6.9.2,1.9.4,2.8.6.9.2,1.8.5,2.6.9.8.4,1.4,1,1.9,1.7.5.7.7,1.7.7,2.9,0,1.8-.7,3.1-2.1,4.1-1.4.9-3.4,1.4-6.2,1.4Z"></path><path class="st0" d="M175.1,954.3c-2.6,0-4.6-.7-6.1-2.2-1.4-1.5-2.1-3.6-2.1-6.3v-3.6c0-2.7.7-4.8,2.1-6.3,1.4-1.5,3.5-2.2,6.1-2.2s3.5.4,4.8,1.1c1.4.8,2.5,1.8,3.2,3.2.8,1.4,1.1,3,1.1,4.9v1.9c0,1.9-.4,3.6-1.1,5-.8,1.4-1.8,2.5-3.2,3.3-1.4.8-3,1.2-4.9,1.2ZM175.6,951.9c2.3,0,4-.7,5.3-2,1.3-1.3,1.9-3.1,1.9-5.4v-1.1c0-2.2-.6-4-1.9-5.3-1.3-1.3-3.1-1.9-5.3-1.9s-3.1.6-4,1.7c-1,1.1-1.4,2.7-1.4,4.7v3c0,2,.5,3.6,1.5,4.7,1,1.1,2.3,1.7,4,1.7ZM182.8,947.7v-21.1h3.2v27.4h-2l-1.3-6.3Z"></path><path class="st0" d="M195.8,926.9v4.5h-3.6v-4.5h3.6ZM195.7,934v20h-3.2v-20h3.2Z"></path><path class="st0" d="M209,954.3c-2.6,0-4.7-.5-6-1.5-1.4-1-2.2-2.5-2.5-4.6h3.3c.1,1.2.7,2.2,1.5,2.8.9.6,2.1.9,3.7.9s2.8-.3,3.6-.8,1.3-1.3,1.3-2.3-.2-1.4-.7-1.9c-.5-.4-1.1-.8-1.9-1-.8-.2-1.6-.4-2.6-.6-.9-.2-1.9-.4-2.8-.6-.9-.2-1.8-.5-2.6-.9-.8-.4-1.4-1-1.9-1.7-.5-.7-.7-1.7-.7-2.9,0-1.8.7-3.2,2.1-4.2,1.4-.9,3.4-1.4,6.1-1.4s3.1.2,4.2.6c1.1.4,2.1,1.1,2.7,1.9.7.9,1.1,1.9,1.3,3.2h-3.3c0-1-.6-1.9-1.4-2.5s-2-.9-3.4-.9-2.8.3-3.6.8c-.9.6-1.3,1.3-1.3,2.3s.2,1.4.7,1.9,1.1.8,1.9,1c.8.2,1.6.4,2.6.6.9.2,1.9.4,2.8.6.9.2,1.8.5,2.6.9.8.4,1.4,1,1.9,1.7.5.7.7,1.7.7,2.9,0,1.8-.7,3.1-2.1,4.1-1.4.9-3.4,1.4-6.2,1.4Z"></path><path class="st0" d="M219.6,934h12v2.4h-12v-2.4ZM228.5,954.3c-1.9,0-3.2-.5-4-1.4-.8-.9-1.3-2.3-1.3-4.3v-14.4l.9-5.1h2.3v19.1c0,1.3.2,2.1.6,2.6.4.5,1.2.7,2.3.7s.7,0,1.1,0c.4,0,.8-.1,1.1-.3l.5,2.4c-.4,0-.8.2-1.2.3-.4,0-.8.2-1.3.2s-.8,0-1.2,0Z"></path><path class="st0" d="M235.9,934h2.2l1,7.4v12.6h-3.2v-20ZM238.1,943c0-3.1.6-5.4,1.8-7,1.2-1.6,2.9-2.4,5.2-2.4s.8,0,1.2,0c.4,0,.8.1,1.2.2l-.2,2.8c-.7-.2-1.5-.3-2.4-.3-1.9,0-3.4.6-4.3,1.8-1,1.2-1.5,3.1-1.5,5.6l-1-.9Z"></path><path class="st0" d="M253.9,926.9v4.5h-3.6v-4.5h3.6ZM253.7,934v20h-3.2v-20h3.2Z"></path><path class="st0" d="M260.2,926.6h3.2v21.1l-1.3,6.3h-2v-27.4ZM271.2,954.3c-1.8,0-3.5-.4-4.9-1.2-1.4-.8-2.5-1.9-3.3-3.3-.8-1.4-1.2-3.1-1.2-5v-1.9c0-1.9.4-3.5,1.1-4.9.8-1.4,1.8-2.4,3.2-3.2,1.4-.8,3-1.1,4.8-1.1,2.6,0,4.7.7,6.1,2.2,1.4,1.5,2.1,3.6,2.1,6.3v3.6c0,2.7-.7,4.8-2.1,6.3-1.4,1.5-3.4,2.2-6,2.2ZM270.6,951.9c1.7,0,3.1-.6,4-1.7,1-1.1,1.4-2.7,1.4-4.7v-3c0-2-.5-3.6-1.4-4.7-1-1.1-2.3-1.7-4-1.7s-4,.6-5.3,1.9c-1.3,1.3-1.9,3-1.9,5.3v1.1c0,2.3.6,4.1,1.9,5.4,1.3,1.3,3.1,2,5.3,2Z"></path><path class="st0" d="M287.8,945.9c0,2,.4,3.5,1.2,4.5.8,1,2,1.4,3.7,1.4s3.8-.7,5-2.1c1.2-1.4,1.7-3.4,1.7-6.1l1.4-2.6v2.4c0,3.5-.7,6.2-2.2,8-1.5,1.9-3.6,2.8-6.5,2.8s-4.5-.7-5.7-2c-1.2-1.3-1.8-3.4-1.8-6.2v-12.1h3.2v11.8ZM302.7,954h-2.3l-1-6.6v-13.4h3.3v20Z"></path><path class="st0" d="M306.5,934h12v2.4h-12v-2.4ZM315.4,954.3c-1.9,0-3.2-.5-4-1.4-.8-.9-1.3-2.3-1.3-4.3v-14.4l.9-5.1h2.3v19.1c0,1.3.2,2.1.6,2.6.4.5,1.2.7,2.3.7s.7,0,1.1,0c.4,0,.8-.1,1.1-.3l.5,2.4c-.4,0-.8.2-1.2.3-.4,0-.8.2-1.3.2s-.8,0-1.2,0Z"></path><path class="st0" d="M330.5,954.3c-1.9,0-3.6-.3-4.9-1-1.3-.7-2.4-1.6-3.1-2.9-.7-1.3-1.1-2.8-1.1-4.6v-3.6c0-1.8.4-3.3,1.1-4.5.8-1.3,1.8-2.2,3.2-2.9,1.4-.7,3.1-1,5-1,3,0,5.2.8,6.8,2.3,1.6,1.6,2.4,3.8,2.4,6.7v2.3h-16v-2.1h13.4l-.5.9v-1.7c0-1.8-.5-3.2-1.6-4.2-1.1-1-2.6-1.5-4.4-1.5s-3.5.5-4.6,1.6c-1.1,1-1.6,2.5-1.6,4.4v3.9c0,1.8.5,3.3,1.6,4.3,1,1,2.5,1.5,4.4,1.5s3.1-.3,4.1-1c1-.7,1.7-1.7,1.9-2.9l3.1.2c-.4,2-1.5,3.5-3.1,4.6-1.6,1.1-3.7,1.6-6.2,1.6Z"></path><path class="st0" d="M353,954.3c-2.6,0-4.6-.7-6.1-2.2-1.4-1.5-2.1-3.6-2.1-6.3v-3.6c0-2.7.7-4.8,2.1-6.3,1.4-1.5,3.5-2.2,6.1-2.2s3.5.4,4.8,1.1c1.4.8,2.5,1.8,3.2,3.2.8,1.4,1.1,3,1.1,4.9v1.9c0,1.9-.4,3.6-1.1,5-.8,1.4-1.8,2.5-3.2,3.3-1.4.8-3,1.2-4.9,1.2ZM353.5,951.9c2.3,0,4-.7,5.3-2,1.3-1.3,1.9-3.1,1.9-5.4v-1.1c0-2.2-.6-4-1.9-5.3-1.3-1.3-3.1-1.9-5.3-1.9s-3.1.6-4,1.7c-1,1.1-1.4,2.7-1.4,4.7v3c0,2,.5,3.6,1.5,4.7,1,1.1,2.3,1.7,4,1.7ZM360.7,947.7v-21.1h3.2v27.4h-2l-1.3-6.3Z"></path></g><g class="st1"><path class="st0" d="M37.8,978h12v2.4h-12v-2.4ZM46.7,998.3c-1.9,0-3.2-.5-4-1.4-.8-.9-1.3-2.3-1.3-4.3v-14.4l.9-5.1h2.3v19.1c0,1.3.2,2.1.6,2.6.4.5,1.2.7,2.3.7s.7,0,1.1,0c.4,0,.8-.1,1.1-.3l.5,2.4c-.4,0-.8.2-1.2.3-.4,0-.8.2-1.3.2s-.8,0-1.2,0Z"></path><path class="st0" d="M54.1,978h2.2l1,7.4v12.6h-3.2v-20ZM56.3,987c0-3.1.6-5.4,1.8-7,1.2-1.6,2.9-2.4,5.2-2.4s.8,0,1.2,0c.4,0,.8.1,1.2.2l-.2,2.8c-.7-.2-1.5-.3-2.4-.3-1.9,0-3.4.6-4.3,1.8-1,1.2-1.5,3.1-1.5,5.6l-1-.9Z"></path><path class="st0" d="M74.1,998.3c-2.1,0-3.8-.5-5-1.5-1.2-1-1.8-2.4-1.8-4.1v-1c0-1.8.6-3.2,1.8-4.2,1.2-1,3-1.5,5.2-1.5s4.2.5,5.6,1.4c1.4,1,2.1,2.3,2.1,4.1v1.1c0,1.8-.7,3.2-2.1,4.2-1.4,1-3.3,1.5-5.8,1.5ZM80.5,991.4v-6.5c0-1.6-.4-2.7-1.3-3.4-.9-.7-2.2-1.1-4.1-1.1s-2.4.2-3.6.5c-1.2.3-2.3.8-3.3,1.4l-.5-2.4c.7-.4,1.5-.7,2.4-1.1.9-.3,1.8-.6,2.8-.7,1-.2,1.9-.3,2.8-.3,2.7,0,4.7.6,6,1.8s2,3,2,5.3v13.2h-2.2l-1-6.6ZM75,996.2c1.7,0,3.1-.4,4.1-1.1s1.5-1.7,1.5-2.9v-.6c0-1.1-.5-2-1.4-2.7-.9-.6-2.3-1-4-1s-2.8.3-3.6.9c-.8.6-1.3,1.6-1.3,2.9v.5c0,1.3.4,2.2,1.2,2.9.8.7,2,1,3.4,1Z"></path><path class="st0" d="M89.7,978h2.2l1,6.6v13.4h-3.2v-20ZM104.5,986.2c0-2-.4-3.5-1.3-4.5-.8-.9-2.1-1.4-3.9-1.4s-3.7.7-4.8,2.1c-1.1,1.4-1.7,3.4-1.7,6.1l-1.4,2.6v-2.4c0-3.5.8-6.2,2.3-8.1,1.6-1.9,3.8-2.8,6.7-2.8s4.3.7,5.4,2c1.2,1.3,1.8,3.4,1.8,6.2v12h-3.2v-11.8Z"></path><path class="st0" d="M120.9,998.3c-2.6,0-4.7-.5-6-1.5-1.4-1-2.2-2.5-2.5-4.6h3.3c.1,1.2.7,2.2,1.5,2.8.9.6,2.1.9,3.7.9s2.8-.3,3.6-.8,1.3-1.3,1.3-2.3-.2-1.4-.7-1.9c-.5-.4-1.1-.8-1.9-1-.8-.2-1.6-.4-2.6-.6-.9-.2-1.9-.4-2.8-.6-.9-.2-1.8-.5-2.6-.9-.8-.4-1.4-1-1.9-1.7-.5-.7-.7-1.7-.7-2.9,0-1.8.7-3.2,2.1-4.2,1.4-.9,3.4-1.4,6.1-1.4s3.1.2,4.2.6c1.1.4,2.1,1.1,2.7,1.9.7.9,1.1,1.9,1.3,3.2h-3.3c0-1-.6-1.9-1.4-2.5s-2-.9-3.4-.9-2.8.3-3.6.8c-.9.6-1.3,1.3-1.3,2.3s.2,1.4.7,1.9,1.1.8,1.9,1c.8.2,1.6.4,2.6.6.9.2,1.9.4,2.8.6.9.2,1.8.5,2.6.9.8.4,1.4,1,1.9,1.7.5.7.7,1.7.7,2.9,0,1.8-.7,3.1-2.1,4.1-1.4.9-3.4,1.4-6.2,1.4Z"></path><path class="st0" d="M140.1,998.3c-2.1,0-3.8-.5-5-1.5-1.2-1-1.8-2.4-1.8-4.1v-1c0-1.8.6-3.2,1.8-4.2,1.2-1,3-1.5,5.2-1.5s4.2.5,5.6,1.4c1.4,1,2.1,2.3,2.1,4.1v1.1c0,1.8-.7,3.2-2.1,4.2-1.4,1-3.3,1.5-5.8,1.5ZM146.5,991.4v-6.5c0-1.6-.4-2.7-1.3-3.4-.9-.7-2.2-1.1-4.1-1.1s-2.4.2-3.6.5c-1.2.3-2.3.8-3.3,1.4l-.5-2.4c.7-.4,1.5-.7,2.4-1.1.9-.3,1.8-.6,2.8-.7,1-.2,1.9-.3,2.8-.3,2.7,0,4.7.6,6,1.8s2,3,2,5.3v13.2h-2.2l-1-6.6ZM141,996.2c1.7,0,3.1-.4,4.1-1.1s1.5-1.7,1.5-2.9v-.6c0-1.1-.5-2-1.4-2.7-.9-.6-2.3-1-4-1s-2.8.3-3.6.9c-.8.6-1.3,1.6-1.3,2.9v.5c0,1.3.4,2.2,1.2,2.9.8.7,2,1,3.4,1Z"></path><path class="st0" d="M164.3,998.3c-1.9,0-3.5-.3-4.9-1-1.4-.7-2.5-1.7-3.2-2.9-.7-1.3-1.1-2.8-1.1-4.6v-3.6c0-1.8.4-3.3,1.1-4.5.8-1.3,1.8-2.2,3.2-2.9,1.4-.7,3-1,4.9-1,2.7,0,4.9.6,6.6,1.9,1.7,1.3,2.6,3,2.8,5.2l-3.1.3c-.3-1.6-1-2.8-2-3.6-1-.8-2.4-1.2-4.2-1.2s-3.4.5-4.5,1.6c-1.1,1.1-1.6,2.5-1.6,4.4v3.6c0,1.9.5,3.3,1.6,4.4,1.1,1,2.6,1.6,4.5,1.6s3.1-.4,4.2-1.2c1-.8,1.7-2,2-3.6l3.1.3c-.2,2.2-1.2,3.9-2.8,5.2-1.7,1.3-3.9,1.9-6.6,1.9Z"></path><path class="st0" d="M175.9,978h12v2.4h-12v-2.4ZM184.8,998.3c-1.9,0-3.2-.5-4-1.4-.8-.9-1.3-2.3-1.3-4.3v-14.4l.9-5.1h2.3v19.1c0,1.3.2,2.1.6,2.6.4.5,1.2.7,2.3.7s.7,0,1.1,0c.4,0,.8-.1,1.1-.3l.5,2.4c-.4,0-.8.2-1.2.3-.4,0-.8.2-1.3.2s-.8,0-1.2,0Z"></path><path class="st0" d="M195.7,970.9v4.5h-3.6v-4.5h3.6ZM195.6,978v20h-3.2v-20h3.2Z"></path><path class="st0" d="M210.7,998.3c-2,0-3.7-.3-5.2-1-1.4-.7-2.5-1.7-3.3-2.9-.8-1.3-1.1-2.8-1.1-4.6v-3.6c0-1.8.4-3.3,1.2-4.5.8-1.3,1.9-2.2,3.3-2.9,1.4-.7,3.2-1,5.1-1s3.7.3,5.1,1c1.4.7,2.5,1.7,3.3,2.9.8,1.3,1.2,2.8,1.2,4.6v3.6c0,1.8-.4,3.3-1.2,4.6-.8,1.3-1.9,2.3-3.3,2.9-1.4.7-3.1,1-5.1,1ZM210.7,995.6c2,0,3.5-.5,4.7-1.6,1.1-1,1.7-2.5,1.7-4.3v-3.5c0-1.8-.6-3.3-1.7-4.3-1.1-1-2.7-1.6-4.7-1.6s-3.5.5-4.7,1.6c-1.2,1.1-1.7,2.5-1.7,4.3v3.5c0,1.8.6,3.2,1.7,4.3,1.2,1.1,2.7,1.6,4.7,1.6Z"></path><path class="st0" d="M225.9,978h2.2l1,6.6v13.4h-3.2v-20ZM240.7,986.2c0-2-.4-3.5-1.3-4.5-.8-.9-2.1-1.4-3.9-1.4s-3.7.7-4.8,2.1c-1.1,1.4-1.7,3.4-1.7,6.1l-1.4,2.6v-2.4c0-3.5.8-6.2,2.3-8.1,1.6-1.9,3.8-2.8,6.7-2.8s4.3.7,5.4,2c1.2,1.3,1.8,3.4,1.8,6.2v12h-3.2v-11.8Z"></path></g></svg> 